<svg data-v-423bf9ae="" xmlns="http://www.w3.org/2000/svg" viewBox="0 0 498.4085283959328 188" class="iconAboveSlogan"><!----><!----><!----><g data-v-423bf9ae="" id="f869d512-ddad-41d1-a151-82acb725eb4f" fill="white" transform="matrix(5.565700853274838,0,0,5.565700853274838,-0.7791999300095256,73.78006765928416)"><path d="M0.18 9.37L0.18 9.37L0.18 9.37Q0.22 9.16 0.23 9.03L0.23 9.03L0.23 9.03Q0.25 8.90 0.14 8.75L0.14 8.75L0.14 8.75Q0.19 8.53 0.23 8.41L0.23 8.41L0.23 8.41Q0.26 8.29 0.23 8.07L0.23 8.07L0.23 8.07Q0.36 7.71 0.61 7.46L0.61 7.46L0.61 7.46Q0.86 7.22 1.16 7.05L1.16 7.05L1.16 7.05Q1.46 6.88 1.79 6.76L1.79 6.76L1.79 6.76Q2.12 6.64 2.41 6.56L2.41 6.56L2.41 6.56Q2.41 6.51 2.35 6.51L2.35 6.51L2.35 6.51Q2.30 6.51 2.32 6.44L2.32 6.44L2.32 6.44Q3.06 6.30 3.81 6.04L3.81 6.04L3.81 6.04Q4.55 5.78 5.33 5.58L5.33 5.58L5.33 5.58Q6.11 5.37 6.93 5.33L6.93 5.33L6.93 5.33Q7.75 5.28 8.65 5.54L8.65 5.54L8.65 5.54Q8.71 5.70 8.80 5.85L8.80 5.85L8.80 5.85Q8.90 6.00 9.00 6.15L9.00 6.15L9.00 6.15Q9.11 6.29 9.19 6.43L9.19 6.43L9.19 6.43Q9.27 6.56 9.28 6.71L9.28 6.71L9.28 6.71Q9.45 6.86 9.55 7.03L9.55 7.03L9.55 7.03Q9.65 7.21 9.58 7.49L9.58 7.49L9.58 7.49Q9.43 7.60 9.27 7.71L9.27 7.71L9.27 7.71Q9.11 7.82 8.93 7.92L8.93 7.92L8.93 7.92Q8.31 7.77 7.70 7.81L7.70 7.81L7.70 7.81Q7.08 7.85 6.59 7.90L6.59 7.90L6.59 7.90Q6.44 7.74 6.23 7.75L6.23 7.75L6.23 7.75Q6.03 7.75 5.80 7.81L5.80 7.81L5.80 7.81Q5.58 7.88 5.36 7.94L5.36 7.94L5.36 7.94Q5.14 8.00 4.95 7.97L4.95 7.97L4.95 7.97Q4.80 8.11 4.55 8.16L4.55 8.16L4.55 8.16Q4.31 8.20 4.03 8.23L4.03 8.23L4.03 8.23Q4.02 8.30 4.06 8.33L4.06 8.33L4.06 8.33Q4.10 8.35 4.07 8.44L4.07 8.44L4.07 8.44Q4.17 8.56 4.33 8.61L4.33 8.61L4.33 8.61Q4.50 8.65 4.67 8.70L4.67 8.70L4.67 8.70Q4.84 8.74 4.98 8.81L4.98 8.81L4.98 8.81Q5.11 8.89 5.15 9.05L5.15 9.05L5.15 9.05Q5.40 9.06 5.58 9.18L5.58 9.18L5.58 9.18Q5.76 9.30 5.88 9.46L5.88 9.46L5.88 9.46Q6.00 9.63 6.06 9.81L6.06 9.81L6.06 9.81Q6.11 9.99 6.10 10.14L6.10 10.14L6.10 10.14Q6.15 10.28 6.21 10.25L6.21 10.25L6.21 10.25Q6.28 10.23 6.36 10.32L6.36 10.32L6.36 10.32Q6.41 10.53 6.61 10.75L6.61 10.75L6.61 10.75Q6.81 10.98 6.92 11.24L6.92 11.24L6.92 11.24Q6.95 11.65 6.97 11.98L6.97 11.98L6.97 11.98Q6.99 12.30 6.85 12.62L6.85 12.62L6.85 12.62Q6.62 13.22 6.18 13.70L6.18 13.70L6.18 13.70Q5.74 14.18 5.19 14.54L5.19 14.54L5.19 14.54Q4.63 14.90 4.02 15.17L4.02 15.17L4.02 15.17Q3.40 15.44 2.80 15.61L2.80 15.61L2.80 15.61Q2.75 15.60 2.67 15.61L2.67 15.61L2.67 15.61Q2.60 15.63 2.64 15.53L2.64 15.53L2.64 15.53Q2.52 15.64 2.36 15.67L2.36 15.67L2.36 15.67Q2.20 15.70 2.02 15.69L2.02 15.69L2.02 15.69Q1.83 15.68 1.65 15.67L1.65 15.67L1.65 15.67Q1.46 15.65 1.29 15.68L1.29 15.68L1.29 15.68Q1.18 15.57 1.09 15.46L1.09 15.46L1.09 15.46Q1.00 15.35 0.94 15.20L0.94 15.20L0.94 15.20Q0.88 15.19 0.88 15.11L0.88 15.11L0.88 15.11Q0.89 15.04 0.82 15.04L0.82 15.04L0.82 15.04Q0.82 14.98 0.83 14.96L0.83 14.96L0.83 14.96Q0.85 14.93 0.86 14.90L0.86 14.90L0.86 14.90Q0.92 14.86 0.91 14.84L0.91 14.84L0.91 14.84Q0.90 14.82 0.87 14.80L0.87 14.80L0.87 14.80Q0.83 14.78 0.80 14.75L0.80 14.75L0.80 14.75Q0.77 14.72 0.78 14.68L0.78 14.68L0.78 14.68Q0.85 14.56 0.83 14.39L0.83 14.39L0.83 14.39Q0.81 14.22 0.79 14.04L0.79 14.04L0.79 14.04Q0.78 13.86 0.82 13.71L0.82 13.71L0.82 13.71Q0.86 13.55 1.05 13.44L1.05 13.44L1.05 13.44Q1.61 13.49 2.11 13.38L2.11 13.38L2.11 13.38Q2.61 13.28 3.06 13.08L3.06 13.08L3.06 13.08Q3.50 12.89 3.90 12.67L3.90 12.67L3.90 12.67Q4.31 12.44 4.69 12.25L4.69 12.25L4.69 12.25Q4.73 12.11 4.82 12.02L4.82 12.02L4.82 12.02Q4.91 11.92 5.00 11.83L5.00 11.83L5.00 11.83Q5.10 11.74 5.18 11.64L5.18 11.64L5.18 11.64Q5.26 11.54 5.30 11.39L5.30 11.39L5.30 11.39Q5.32 11.33 5.30 11.31L5.30 11.31L5.30 11.31Q5.29 11.28 5.26 11.26L5.26 11.26L5.26 11.26Q5.24 11.24 5.21 11.21L5.21 11.21L5.21 11.21Q5.18 11.18 5.18 11.13L5.18 11.13L5.18 11.13Q5.14 11.12 5.11 11.10L5.11 11.10L5.11 11.10Q5.07 11.09 5.04 11.09L5.04 11.09L5.04 11.09Q4.69 10.91 4.29 10.79L4.29 10.79L4.29 10.79Q3.90 10.66 3.62 10.51L3.62 10.51L3.62 10.51Q3.46 10.62 3.29 10.57L3.29 10.57L3.29 10.57Q3.13 10.51 2.90 10.46L2.90 10.46L2.90 10.46Q2.32 10.43 1.81 10.35L1.81 10.35L1.81 10.35Q1.30 10.27 0.82 10.06L0.82 10.06L0.82 10.06Q0.79 9.98 0.75 9.92L0.75 9.92L0.75 9.92Q0.71 9.86 0.56 9.88L0.56 9.88L0.56 9.88Q0.46 9.75 0.36 9.63L0.36 9.63L0.36 9.63Q0.26 9.52 0.18 9.37ZM15.76 11.43L15.76 11.43L15.76 11.43Q15.75 11.59 15.79 11.74L15.79 11.74L15.79 11.74Q15.83 11.89 15.89 12.04L15.89 12.04L15.89 12.04Q15.96 12.18 16.01 12.33L16.01 12.33L16.01 12.33Q16.06 12.48 16.09 12.63L16.09 12.63L16.09 12.63Q16.12 12.82 16.09 13.05L16.09 13.05L16.09 13.05Q16.06 13.28 16.00 13.49L16.00 13.49L16.00 13.49Q15.93 13.70 15.82 13.87L15.82 13.87L15.82 13.87Q15.71 14.04 15.56 14.12L15.56 14.12L15.56 14.12Q15.37 14.37 15.09 14.51L15.09 14.51L15.09 14.51Q14.82 14.64 14.59 14.83L14.59 14.83L14.59 14.83Q14.44 14.93 14.25 14.97L14.25 14.97L14.25 14.97Q14.07 15.01 13.88 15.05L13.88 15.05L13.88 15.05Q13.73 15.13 13.52 15.22L13.52 15.22L13.52 15.22Q13.32 15.31 13.10 15.39L13.10 15.39L13.10 15.39Q12.88 15.46 12.66 15.50L12.66 15.50L12.66 15.50Q12.44 15.53 12.28 15.52L12.28 15.52L12.28 15.52Q11.87 15.67 11.48 15.72L11.48 15.72L11.48 15.72Q11.09 15.76 10.57 15.65L10.57 15.65L10.57 15.65Q10.08 15.72 9.66 15.61L9.66 15.61L9.66 15.61Q9.24 15.50 8.92 15.26L8.92 15.26L8.92 15.26Q8.60 15.03 8.36 14.69L8.36 14.69L8.36 14.69Q8.12 14.36 7.97 13.99L7.97 13.99L7.97 13.99Q7.86 13.21 8.03 12.57L8.03 12.57L8.03 12.57Q8.19 11.94 8.50 11.40L8.50 11.40L8.50 11.40Q8.80 10.86 9.20 10.40L9.20 10.40L9.20 10.40Q9.60 9.94 9.97 9.50L9.97 9.50L9.97 9.50Q10.05 9.53 10.10 9.50L10.10 9.50L10.10 9.50Q10.14 9.46 10.19 9.40L10.19 9.40L10.19 9.40Q10.23 9.34 10.27 9.28L10.27 9.28L10.27 9.28Q10.32 9.23 10.39 9.21L10.39 9.21L10.39 9.21Q10.49 9.01 10.67 8.91L10.67 8.91L10.67 8.91Q10.86 8.80 10.96 8.61L10.96 8.61L10.96 8.61Q11.09 8.59 11.17 8.53L11.17 8.53L11.17 8.53Q11.25 8.48 11.33 8.41L11.33 8.41L11.33 8.41Q11.40 8.34 11.48 8.28L11.48 8.28L11.48 8.28Q11.57 8.22 11.68 8.19L11.68 8.19L11.68 8.04L11.68 8.04Q11.92 7.93 12.04 7.79L12.04 7.79L12.04 7.79Q12.15 7.64 12.32 7.44L12.32 7.44L12.32 7.44Q12.44 7.42 12.52 7.42L12.52 7.42L12.52 7.42Q12.59 7.42 12.74 7.40L12.74 7.40L12.74 7.40Q12.85 7.21 12.94 7.11L12.94 7.11L12.94 7.11Q13.03 7.01 13.21 6.90L13.21 6.90L13.21 6.90Q13.37 6.99 13.57 7.01L13.57 7.01L13.57 7.01Q13.77 7.04 13.92 7.19L13.92 7.19L13.92 7.19Q13.93 7.33 14 7.40L14 7.40L14 7.40Q14.07 7.48 14.15 7.54L14.15 7.54L14.15 7.54Q14.23 7.60 14.31 7.67L14.31 7.67L14.31 7.67Q14.38 7.74 14.41 7.86L14.41 7.86L14.41 7.86Q14.46 7.88 14.49 7.85L14.49 7.85L14.49 7.85Q14.51 7.82 14.56 7.83L14.56 7.83L14.56 7.83Q14.60 8.03 14.66 8.09L14.66 8.09L14.66 8.09Q14.71 8.15 14.77 8.33L14.77 8.33L14.77 8.33Q14.70 8.46 14.66 8.61L14.66 8.61L14.66 8.61Q14.63 8.75 14.49 8.82L14.49 8.82L14.49 8.82Q14.48 8.91 14.55 8.92L14.55 8.92L14.55 8.92Q14.62 8.93 14.63 9.00L14.63 9.00L14.63 9.00Q14.64 9.12 14.59 9.17L14.59 9.17L14.59 9.17Q14.92 9.71 15.18 10.30L15.18 10.30L15.18 10.30Q15.44 10.90 15.76 11.43ZM14.05 12.73L14.05 12.73L14.05 12.73Q14.11 12.58 14.20 12.48L14.20 12.48L14.20 12.48Q14.29 12.39 14.30 12.20L14.30 12.20L14.30 12.20Q14.23 12.09 14.22 12.02L14.22 12.02L14.22 12.02Q14.21 11.96 14.21 11.83L14.21 11.83L14.21 11.83Q13.90 11.40 13.69 10.92L13.69 10.92L13.69 10.92Q13.47 10.43 13.19 10.01L13.19 10.01L13.19 10.01Q13.17 10.06 13.10 10.12L13.10 10.12L13.10 10.12Q13.03 10.17 12.95 10.09L12.95 10.09L12.95 10.09Q12.92 10.20 12.85 10.25L12.85 10.25L12.85 10.25Q12.78 10.29 12.70 10.29L12.70 10.29L12.70 10.29Q12.62 10.28 12.53 10.25L12.53 10.25L12.53 10.25Q12.44 10.21 12.37 10.16L12.37 10.16L12.37 10.16Q11.98 10.47 11.58 10.77L11.58 10.77L11.58 10.77Q11.18 11.07 10.87 11.47L10.87 11.47L10.87 11.47Q10.81 11.50 10.80 11.49L10.80 11.49L10.80 11.49Q10.79 11.48 10.72 11.51L10.72 11.51L10.72 11.51Q10.61 11.77 10.45 11.98L10.45 11.98L10.45 11.98Q10.29 12.20 10.14 12.41L10.14 12.41L10.14 12.41Q9.99 12.63 9.88 12.88L9.88 12.88L9.88 12.88Q9.78 13.13 9.76 13.45L9.76 13.45L9.76 13.45Q9.99 13.64 10.31 13.69L10.31 13.69L10.31 13.69Q10.62 13.73 10.96 13.70L10.96 13.70L10.96 13.70Q11.29 13.67 11.61 13.61L11.61 13.61L11.61 13.61Q11.94 13.55 12.21 13.55L12.21 13.55L12.21 13.55Q12.78 13.41 13.19 13.19L13.19 13.19L13.19 13.19Q13.60 12.96 14.05 12.73ZM19.40 13.04L19.40 13.04L19.40 13.04Q19.28 13.07 19.22 13.19L19.22 13.19L19.22 13.19Q19.17 13.30 19.12 13.43L19.12 13.43L19.12 13.43Q19.07 13.55 19.02 13.65L19.02 13.65L19.02 13.65Q18.98 13.75 18.88 13.75L18.88 13.75L18.88 13.75Q18.87 13.86 18.81 13.95L18.81 13.95L18.81 13.95Q18.74 14.03 18.69 14.12L18.69 14.12L18.69 14.12Q18.63 14.21 18.61 14.31L18.61 14.31L18.61 14.31Q18.58 14.41 18.63 14.55L18.63 14.55L18.63 14.55Q18.53 14.63 18.50 14.78L18.50 14.78L18.50 14.78Q18.47 14.93 18.44 15.07L18.44 15.07L18.44 15.07Q18.40 15.20 18.32 15.30L18.32 15.30L18.32 15.30Q18.24 15.39 18.02 15.38L18.02 15.38L18.02 15.38Q17.98 15.44 18.01 15.45L18.01 15.45L18.01 15.45Q18.03 15.46 18.05 15.54L18.05 15.54L18.05 15.54Q17.90 15.52 17.82 15.57L17.82 15.57L17.82 15.57Q17.75 15.61 17.64 15.63L17.64 15.63L17.64 15.63Q17.38 15.54 17.21 15.34L17.21 15.34L17.21 15.34Q17.04 15.13 16.91 14.88L16.91 14.88L16.91 14.88Q16.78 14.63 16.67 14.37L16.67 14.37L16.67 14.37Q16.57 14.11 16.47 13.92L16.47 13.92L16.47 13.92Q16.52 13.77 16.49 13.62L16.49 13.62L16.49 13.62Q16.46 13.48 16.39 13.38L16.39 13.38L16.39 13.38Q17.06 11.96 17.86 10.35L17.86 10.35L17.86 10.35Q18.65 8.74 19.36 7.16L19.36 7.16L19.36 7.16Q19.67 7.29 19.98 7.44L19.98 7.44L19.98 7.44Q20.29 7.60 20.54 7.81L20.54 7.81L20.54 7.81Q20.79 8.01 20.97 8.28L20.97 8.28L20.97 8.28Q21.15 8.54 21.21 8.87L21.21 8.87L21.21 8.87Q21.18 8.96 21.14 8.93L21.14 8.93L21.14 8.93Q21.11 8.91 21.08 8.96L21.08 8.96L21.08 8.96Q21.14 9.02 21.14 9.05L21.14 9.05L21.14 9.05Q21.15 9.08 21.14 9.11L21.14 9.11L21.14 9.11Q21.14 9.13 21.14 9.18L21.14 9.18L21.14 9.18Q21.14 9.23 21.18 9.31L21.18 9.31L21.18 9.31Q21.12 9.30 21.10 9.32L21.10 9.32L21.10 9.32Q21.08 9.35 21.01 9.32L21.01 9.32L21.01 9.32Q21.07 9.47 21.05 9.57L21.05 9.57L21.05 9.57Q21.03 9.67 20.99 9.74L20.99 9.74L20.99 9.74Q20.95 9.82 20.92 9.91L20.92 9.91L20.92 9.91Q20.89 9.99 20.93 10.13L20.93 10.13L20.93 10.13Q20.89 10.13 20.87 10.15L20.87 10.15L20.87 10.15Q20.85 10.17 20.84 10.19L20.84 10.19L20.84 10.19Q20.82 10.21 20.80 10.23L20.80 10.23L20.80 10.23Q20.78 10.25 20.74 10.24L20.74 10.24L20.74 10.24Q20.78 10.54 20.77 10.84L20.77 10.84L20.77 10.84Q20.75 11.14 20.75 11.45L20.75 11.45L20.75 11.45Q20.74 11.76 20.75 12.09L20.75 12.09L20.75 12.09Q20.77 12.43 20.85 12.78L20.85 12.78L20.85 12.78Q21.34 12.50 21.64 12.04L21.64 12.04L21.64 12.04Q21.93 11.59 22.11 11.03L22.11 11.03L22.11 11.03Q22.30 10.47 22.39 9.83L22.39 9.83L22.39 9.83Q22.49 9.19 22.60 8.52L22.60 8.52L22.60 8.52Q22.72 8.39 22.79 8.22L22.79 8.22L22.79 8.22Q22.86 8.04 22.91 7.84L22.91 7.84L22.91 7.84Q22.97 7.64 23.02 7.44L23.02 7.44L23.02 7.44Q23.08 7.25 23.16 7.08L23.16 7.08L23.16 7.08Q23.37 7.11 23.51 7.21L23.51 7.21L23.51 7.21Q23.65 7.31 23.78 7.43L23.78 7.43L23.78 7.43Q23.90 7.55 24.04 7.65L24.04 7.65L24.04 7.65Q24.17 7.75 24.38 7.78L24.38 7.78L24.38 7.78Q24.54 8.01 24.68 8.23L24.68 8.23L24.68 8.23Q24.81 8.45 24.86 8.70L24.86 8.70L24.86 8.70Q24.79 8.80 24.75 8.94L24.75 8.94L24.75 8.94Q24.72 9.08 24.68 9.21L24.68 9.21L24.68 9.21Q24.64 9.35 24.57 9.47L24.57 9.47L24.57 9.47Q24.50 9.58 24.38 9.67L24.38 9.67L24.38 9.67Q24.34 10.02 24.27 10.32L24.27 10.32L24.27 10.32Q24.21 10.61 24.15 10.90L24.15 10.90L24.15 10.90Q24.09 11.18 24.05 11.49L24.05 11.49L24.05 11.49Q24.01 11.80 24.02 12.17L24.02 12.17L24.02 12.17Q23.91 12.48 23.79 12.84L23.79 12.84L23.79 12.84Q23.67 13.19 23.60 13.48L23.60 13.48L23.60 13.48Q23.38 13.66 23.26 13.90L23.26 13.90L23.26 13.90Q23.13 14.15 23.00 14.40L23.00 14.40L23.00 14.40Q22.94 14.45 22.93 14.42L22.93 14.42L22.93 14.42Q22.91 14.40 22.83 14.38L22.83 14.38L22.83 14.38Q22.85 14.44 22.83 14.46L22.83 14.46L22.83 14.46Q22.82 14.49 22.80 14.51L22.80 14.51L22.80 14.51Q22.78 14.53 22.77 14.57L22.77 14.57L22.77 14.57Q22.76 14.62 22.79 14.68L22.79 14.68L22.79 14.68Q22.60 14.77 22.45 14.92L22.45 14.92L22.45 14.92Q22.30 15.07 22.13 15.19L22.13 15.19L22.13 15.19Q21.96 15.31 21.72 15.35L21.72 15.35L21.72 15.35Q21.48 15.39 21.10 15.26L21.10 15.26L21.10 15.26Q20.54 14.85 20.10 14.31L20.10 14.31L20.10 14.31Q19.67 13.78 19.40 13.04ZM27.40 14.57L27.40 14.57L27.40 14.57Q27.47 14.98 27.35 15.22L27.35 15.22L27.35 15.22Q27.23 15.45 27.02 15.57L27.02 15.57L27.02 15.57Q26.81 15.68 26.54 15.70L26.54 15.70L26.54 15.70Q26.26 15.71 26.02 15.67L26.02 15.67L26.02 15.67Q25.88 15.48 25.77 15.19L25.77 15.19L25.77 15.19Q25.66 14.90 25.57 14.59L25.57 14.59L25.57 14.59Q25.47 14.29 25.40 13.99L25.40 13.99L25.40 13.99Q25.32 13.69 25.27 13.45L25.27 13.45L25.27 13.45Q25.33 13.29 25.35 13.08L25.35 13.08L25.35 13.08Q25.38 12.87 25.38 12.65L25.38 12.65L25.38 12.65Q25.39 12.43 25.40 12.20L25.40 12.20L25.40 12.20Q25.40 11.98 25.43 11.77L25.43 11.77L25.43 11.77Q25.53 11.20 25.71 10.68L25.71 10.68L25.71 10.68Q25.89 10.16 26.00 9.60L26.00 9.60L26.00 9.60Q26.03 9.47 25.98 9.37L25.98 9.37L25.98 9.37Q25.94 9.26 25.96 9.16L25.96 9.16L25.96 9.16Q25.98 9.11 26.04 9.08L26.04 9.08L26.04 9.08Q26.11 9.06 26.13 9.00L26.13 9.00L26.13 9.00Q26.17 8.85 26.15 8.75L26.15 8.75L26.15 8.75Q26.13 8.65 26.20 8.52L26.20 8.52L26.20 8.52Q26.26 8.41 26.37 8.20L26.37 8.20L26.37 8.20Q26.47 7.98 26.44 7.75L26.44 7.75L26.44 7.75Q26.56 7.67 26.67 7.56L26.67 7.56L26.67 7.56Q26.78 7.45 26.90 7.36L26.90 7.36L26.90 7.36Q27.02 7.27 27.16 7.21L27.16 7.21L27.16 7.21Q27.30 7.14 27.51 7.14L27.51 7.14L27.51 7.14Q27.62 7.27 27.65 7.44L27.65 7.44L27.65 7.44Q27.69 7.60 27.72 7.77L27.72 7.77L27.72 7.77Q27.75 7.93 27.82 8.07L27.82 8.07L27.82 8.07Q27.89 8.22 28.05 8.30L28.05 8.30L28.05 8.30Q28.05 8.41 28.05 8.57L28.05 8.57L28.05 8.57Q28.05 8.74 28.07 8.89L28.07 8.89L28.07 8.89Q28.08 9.05 28.13 9.18L28.13 9.18L28.13 9.18Q28.18 9.31 28.29 9.35L28.29 9.35L28.29 9.35Q28.04 10.01 27.83 10.65L27.83 10.65L27.83 10.65Q27.62 11.29 27.48 11.94L27.48 11.94L27.48 11.94Q27.34 12.59 27.31 13.25L27.31 13.25L27.31 13.25Q27.28 13.90 27.40 14.57ZM35.72 11.84L35.72 11.84L35.72 11.84Q35.71 11.91 35.70 11.96L35.70 11.96L35.70 11.96Q35.68 12.00 35.67 12.04L35.67 12.04L35.67 12.04Q35.66 12.09 35.66 12.15L35.66 12.15L35.66 12.15Q35.66 12.21 35.66 12.30L35.66 12.30L35.66 12.30Q35.25 13.03 34.62 13.52L34.62 13.52L34.62 13.52Q34.00 14.01 33.26 14.39L33.26 14.39L33.26 14.39Q32.51 14.77 31.71 15.07L31.71 15.07L31.71 15.07Q30.90 15.38 30.13 15.74L30.13 15.74L30.13 15.74Q29.80 15.65 29.63 15.46L29.63 15.46L29.63 15.46Q29.46 15.27 29.37 15.02L29.37 15.02L29.37 15.02Q29.29 14.77 29.25 14.46L29.25 14.46L29.25 14.46Q29.22 14.15 29.19 13.82L29.19 13.82L29.19 13.82Q29.23 13.67 29.31 13.57L29.31 13.57L29.31 13.57Q29.38 13.47 29.38 13.28L29.38 13.28L29.38 13.28Q29.49 12.92 29.60 12.58L29.60 12.58L29.60 12.58Q29.71 12.24 29.74 11.88L29.74 11.88L29.74 11.88Q29.78 11.77 29.89 11.73L29.89 11.73L29.89 11.73Q29.96 11.07 29.89 10.40L29.89 10.40L29.89 10.40Q29.83 9.72 29.67 9.13L29.67 9.13L29.67 9.13Q29.68 9.00 29.70 8.93L29.70 8.93L29.70 8.93Q29.72 8.87 29.70 8.85L29.70 8.85L29.70 8.85Q29.68 8.74 29.77 8.74L29.77 8.74L29.77 8.74Q29.86 8.74 29.96 8.74L29.96 8.74L29.96 8.74Q29.96 8.53 29.88 8.33L29.88 8.33L29.88 8.33Q29.80 8.12 29.74 7.86L29.74 7.86L29.74 7.86Q29.83 7.66 29.86 7.46L29.86 7.46L29.86 7.46Q29.89 7.26 29.98 7.11L29.98 7.11L29.98 7.11Q30.72 7.34 31.40 7.67L31.40 7.67L31.40 7.67Q32.07 8.00 32.73 8.15L32.73 8.15L32.73 8.15Q33.22 8.50 33.74 8.85L33.74 8.85L33.74 8.85Q34.26 9.20 34.69 9.62L34.69 9.62L34.69 9.62Q35.11 10.04 35.40 10.57L35.40 10.57L35.40 10.57Q35.68 11.10 35.72 11.84ZM32.48 12.59L32.48 12.59L32.48 12.59Q32.77 12.48 33.05 12.36L33.05 12.36L33.05 12.36Q33.33 12.24 33.57 12.08L33.57 12.08L33.57 12.08Q33.81 11.92 34.00 11.72L34.00 11.72L34.00 11.72Q34.19 11.51 34.32 11.22L34.32 11.22L34.32 11.22Q34.23 11.06 34.10 10.93L34.10 10.93L34.10 10.93Q33.96 10.80 33.82 10.68L33.82 10.68L33.82 10.68Q33.69 10.57 33.56 10.45L33.56 10.45L33.56 10.45Q33.43 10.32 33.35 10.14L33.35 10.14L33.35 10.14Q33.17 10.12 33.03 10.04L33.03 10.04L33.03 10.04Q32.89 9.97 32.76 9.89L32.76 9.89L32.76 9.89Q32.63 9.82 32.49 9.75L32.49 9.75L32.49 9.75Q32.35 9.68 32.16 9.67L32.16 9.67L32.16 9.67Q31.86 9.52 31.62 9.45L31.62 9.45L31.62 9.45Q31.38 9.38 31.25 9.27L31.25 9.27L31.25 9.27Q31.16 9.27 31.10 9.31L31.10 9.31L31.10 9.31Q31.24 9.83 31.31 10.29L31.31 10.29L31.31 10.29Q31.38 10.75 31.38 11.20L31.38 11.20L31.38 11.20Q31.39 11.66 31.34 12.14L31.34 12.14L31.34 12.14Q31.28 12.62 31.19 13.18L31.19 13.18L31.19 13.18Q31.32 13.17 31.44 13.12L31.44 13.12L31.44 13.12Q31.55 13.07 31.67 13.02L31.67 13.02L31.67 13.02Q31.79 12.96 31.92 12.91L31.92 12.91L31.92 12.91Q32.05 12.87 32.22 12.85L32.22 12.85L32.22 12.85Q32.27 12.77 32.34 12.71L32.34 12.71L32.34 12.71Q32.42 12.66 32.48 12.59ZM43.91 11.43L43.91 11.43L43.91 11.43Q43.90 11.59 43.94 11.74L43.94 11.74L43.94 11.74Q43.98 11.89 44.04 12.04L44.04 12.04L44.04 12.04Q44.11 12.18 44.16 12.33L44.16 12.33L44.16 12.33Q44.21 12.48 44.24 12.63L44.24 12.63L44.24 12.63Q44.27 12.82 44.24 13.05L44.24 13.05L44.24 13.05Q44.21 13.28 44.15 13.49L44.15 13.49L44.15 13.49Q44.08 13.70 43.97 13.87L43.97 13.87L43.97 13.87Q43.86 14.04 43.71 14.12L43.71 14.12L43.71 14.12Q43.52 14.37 43.24 14.51L43.24 14.51L43.24 14.51Q42.97 14.64 42.74 14.83L42.74 14.83L42.74 14.83Q42.59 14.93 42.40 14.97L42.40 14.97L42.40 14.97Q42.22 15.01 42.03 15.05L42.03 15.05L42.03 15.05Q41.88 15.13 41.67 15.22L41.67 15.22L41.67 15.22Q41.47 15.31 41.25 15.39L41.25 15.39L41.25 15.39Q41.03 15.46 40.81 15.50L40.81 15.50L40.81 15.50Q40.59 15.53 40.43 15.52L40.43 15.52L40.43 15.52Q40.02 15.67 39.63 15.72L39.63 15.72L39.63 15.72Q39.24 15.76 38.72 15.65L38.72 15.65L38.72 15.65Q38.23 15.72 37.81 15.61L37.81 15.61L37.81 15.61Q37.39 15.50 37.07 15.26L37.07 15.26L37.07 15.26Q36.75 15.03 36.51 14.69L36.51 14.69L36.51 14.69Q36.27 14.36 36.12 13.99L36.12 13.99L36.12 13.99Q36.01 13.21 36.18 12.57L36.18 12.57L36.18 12.57Q36.34 11.94 36.65 11.40L36.65 11.40L36.65 11.40Q36.96 10.86 37.35 10.40L37.35 10.40L37.35 10.40Q37.75 9.94 38.12 9.50L38.12 9.50L38.12 9.50Q38.20 9.53 38.25 9.50L38.25 9.50L38.25 9.50Q38.29 9.46 38.34 9.40L38.34 9.40L38.34 9.40Q38.38 9.34 38.42 9.28L38.42 9.28L38.42 9.28Q38.47 9.23 38.54 9.21L38.54 9.21L38.54 9.21Q38.64 9.01 38.82 8.91L38.82 8.91L38.82 8.91Q39.01 8.80 39.12 8.61L39.12 8.61L39.12 8.61Q39.24 8.59 39.32 8.53L39.32 8.53L39.32 8.53Q39.40 8.48 39.48 8.41L39.48 8.41L39.48 8.41Q39.55 8.34 39.63 8.28L39.63 8.28L39.63 8.28Q39.72 8.22 39.83 8.19L39.83 8.19L39.83 8.04L39.83 8.04Q40.07 7.93 40.19 7.79L40.19 7.79L40.19 7.79Q40.30 7.64 40.47 7.44L40.47 7.44L40.47 7.44Q40.59 7.42 40.67 7.42L40.67 7.42L40.67 7.42Q40.74 7.42 40.89 7.40L40.89 7.40L40.89 7.40Q41.00 7.21 41.09 7.11L41.09 7.11L41.09 7.11Q41.18 7.01 41.36 6.90L41.36 6.90L41.36 6.90Q41.52 6.99 41.72 7.01L41.72 7.01L41.72 7.01Q41.92 7.04 42.07 7.19L42.07 7.19L42.07 7.19Q42.08 7.33 42.15 7.40L42.15 7.40L42.15 7.40Q42.22 7.48 42.30 7.54L42.30 7.54L42.30 7.54Q42.38 7.60 42.46 7.67L42.46 7.67L42.46 7.67Q42.53 7.74 42.56 7.86L42.56 7.86L42.56 7.86Q42.62 7.88 42.64 7.85L42.64 7.85L42.64 7.85Q42.66 7.82 42.71 7.83L42.71 7.83L42.71 7.83Q42.75 8.03 42.81 8.09L42.81 8.09L42.81 8.09Q42.86 8.15 42.92 8.33L42.92 8.33L42.92 8.33Q42.85 8.46 42.81 8.61L42.81 8.61L42.81 8.61Q42.78 8.75 42.64 8.82L42.64 8.82L42.64 8.82Q42.63 8.91 42.70 8.92L42.70 8.92L42.70 8.92Q42.77 8.93 42.78 9.00L42.78 9.00L42.78 9.00Q42.79 9.12 42.74 9.17L42.74 9.17L42.74 9.17Q43.07 9.71 43.33 10.30L43.33 10.30L43.33 10.30Q43.59 10.90 43.91 11.43ZM42.21 12.73L42.21 12.73L42.21 12.73Q42.26 12.58 42.35 12.48L42.35 12.48L42.35 12.48Q42.44 12.39 42.45 12.20L42.45 12.20L42.45 12.20Q42.38 12.09 42.37 12.02L42.37 12.02L42.37 12.02Q42.36 11.96 42.36 11.83L42.36 11.83L42.36 11.83Q42.05 11.40 41.84 10.92L41.84 10.92L41.84 10.92Q41.62 10.43 41.34 10.01L41.34 10.01L41.34 10.01Q41.32 10.06 41.25 10.12L41.25 10.12L41.25 10.12Q41.18 10.17 41.10 10.09L41.10 10.09L41.10 10.09Q41.07 10.20 41.00 10.25L41.00 10.25L41.00 10.25Q40.93 10.29 40.85 10.29L40.85 10.29L40.85 10.29Q40.77 10.28 40.68 10.25L40.68 10.25L40.68 10.25Q40.59 10.21 40.52 10.16L40.52 10.16L40.52 10.16Q40.13 10.47 39.73 10.77L39.73 10.77L39.73 10.77Q39.33 11.07 39.02 11.47L39.02 11.47L39.02 11.47Q38.96 11.50 38.95 11.49L38.95 11.49L38.95 11.49Q38.94 11.48 38.87 11.51L38.87 11.51L38.87 11.51Q38.76 11.77 38.60 11.98L38.60 11.98L38.60 11.98Q38.45 12.20 38.29 12.41L38.29 12.41L38.29 12.41Q38.14 12.63 38.04 12.88L38.04 12.88L38.04 12.88Q37.93 13.13 37.91 13.45L37.91 13.45L37.91 13.45Q38.14 13.64 38.46 13.69L38.46 13.69L38.46 13.69Q38.77 13.73 39.11 13.70L39.11 13.70L39.11 13.70Q39.44 13.67 39.76 13.61L39.76 13.61L39.76 13.61Q40.09 13.55 40.36 13.55L40.36 13.55L40.36 13.55Q40.93 13.41 41.34 13.19L41.34 13.19L41.34 13.19Q41.75 12.96 42.21 12.73ZM51.06 8.93L51.06 8.93L51.06 8.93Q50.49 8.70 50.11 8.27L50.11 8.27L50.11 8.27Q49.74 7.85 49.51 7.27L49.51 7.27L49.51 7.27Q49.64 6.90 49.94 6.65L49.94 6.65L49.94 6.65Q50.24 6.40 50.62 6.22L50.62 6.22L50.62 6.22Q51.00 6.04 51.42 5.93L51.42 5.93L51.42 5.93Q51.84 5.82 52.24 5.74L52.24 5.74L52.24 5.74Q52.32 5.77 52.32 5.74L52.32 5.74L52.32 5.74Q52.32 5.71 52.39 5.77L52.39 5.77L52.39 5.77Q52.88 5.62 53.53 5.48L53.53 5.48L53.53 5.48Q54.17 5.33 54.89 5.37L54.89 5.37L54.89 5.37Q54.99 5.32 55.13 5.31L55.13 5.31L55.13 5.31Q55.26 5.30 55.41 5.30L55.41 5.30L55.41 5.30Q55.56 5.30 55.70 5.30L55.70 5.30L55.70 5.30Q55.84 5.29 55.93 5.25L55.93 5.25L55.93 5.25Q56.01 5.35 56.18 5.37L56.18 5.37L56.18 5.37Q56.34 5.39 56.52 5.51L56.52 5.51L56.52 5.51Q56.57 5.52 56.52 5.46L56.52 5.46L56.52 5.46Q56.46 5.40 56.53 5.37L56.53 5.37L56.53 5.37Q56.71 5.37 56.85 5.46L56.85 5.46L56.85 5.46Q56.98 5.54 57.10 5.64L57.10 5.64L57.10 5.64Q57.22 5.74 57.32 5.82L57.32 5.82L57.32 5.82Q57.42 5.91 57.54 5.91L57.54 5.91L57.54 5.91Q57.67 6.06 57.84 6.19L57.84 6.19L57.84 6.19Q58.01 6.32 58.17 6.45L58.17 6.45L58.17 6.45Q58.32 6.59 58.43 6.75L58.43 6.75L58.43 6.75Q58.53 6.92 58.53 7.12L58.53 7.12L58.53 7.12Q58.52 7.21 58.58 7.22L58.58 7.22L58.58 7.22Q58.65 7.23 58.68 7.30L58.68 7.30L58.68 7.30Q58.69 7.81 58.52 8.18L58.52 8.18L58.52 8.18Q58.35 8.54 58.09 8.85L58.09 8.85L58.09 8.85Q57.83 9.16 57.54 9.43L57.54 9.43L57.54 9.43Q57.24 9.71 57.00 10.02L57.00 10.02L57.00 10.02Q57.16 10.23 57.37 10.40L57.37 10.40L57.37 10.40Q57.59 10.57 57.80 10.73L57.80 10.73L57.80 10.73Q58.02 10.90 58.22 11.08L58.22 11.08L58.22 11.08Q58.42 11.27 58.56 11.50L58.56 11.50L58.56 11.50Q58.60 11.58 58.73 11.61L58.73 11.61L58.73 11.61Q58.78 11.77 58.85 11.94L58.85 11.94L58.85 11.94Q58.93 12.11 58.99 12.27L58.99 12.27L58.99 12.27Q59.06 12.43 59.08 12.55L59.08 12.55L59.08 12.55Q59.09 12.67 59.01 12.76L59.01 12.76L59.01 12.76Q59.10 12.81 59.12 12.93L59.12 12.93L59.12 12.93Q59.13 13.04 59.12 13.11L59.12 13.11L59.12 13.11Q58.82 13.48 58.71 13.63L58.71 13.63L58.71 13.63Q58.60 13.78 58.54 13.85L58.54 13.85L58.54 13.85Q58.49 13.92 58.43 13.97L58.43 13.97L58.43 13.97Q58.38 14.03 58.19 14.19L58.19 14.19L58.19 14.19Q57.46 14.63 56.68 14.98L56.68 14.98L56.68 14.98Q55.89 15.33 55.04 15.45L55.04 15.45L55.04 15.45Q54.97 15.54 54.84 15.61L54.84 15.61L54.84 15.61Q54.71 15.67 54.55 15.71L54.55 15.71L54.55 15.71Q54.39 15.75 54.20 15.78L54.20 15.78L54.20 15.78Q54.02 15.80 53.87 15.83L53.87 15.83L53.87 15.83Q53.80 15.80 53.79 15.74L53.79 15.74L53.79 15.74Q53.79 15.68 53.72 15.65L53.72 15.65L53.72 15.65Q53.70 15.82 53.57 15.83L53.57 15.83L53.57 15.83Q53.44 15.83 53.25 15.76L53.25 15.76L53.25 15.76Q53.06 15.70 52.86 15.57L52.86 15.57L52.86 15.57Q52.65 15.45 52.50 15.34L52.50 15.34L52.50 15.34Q52.43 15.46 52.33 15.60L52.33 15.60L52.33 15.60Q52.23 15.74 52.12 15.79L52.12 15.79L52.12 15.79Q51.93 15.76 51.84 15.75L51.84 15.75L51.84 15.75Q51.75 15.74 51.67 15.82L51.67 15.82L51.67 15.82Q51.56 15.76 51.50 15.70L51.50 15.70L51.50 15.70Q51.45 15.64 51.39 15.58L51.39 15.58L51.39 15.58Q51.34 15.52 51.27 15.47L51.27 15.47L51.27 15.47Q51.20 15.42 51.06 15.38L51.06 15.38L51.06 15.38Q51.09 15.31 51.02 15.17L51.02 15.17L51.02 15.17Q50.96 15.03 50.83 15.00L50.83 15.00L50.83 15.00Q50.90 14.89 50.78 14.72L50.78 14.72L50.78 14.72Q50.65 14.55 50.59 14.33L50.59 14.33L50.59 14.33Q50.60 14.23 50.61 14.13L50.61 14.13L50.61 14.13Q50.61 14.03 50.63 13.94L50.63 13.94L50.63 13.94Q50.65 13.85 50.70 13.78L50.70 13.78L50.70 13.78Q50.74 13.71 50.83 13.69L50.83 13.69L50.83 13.69Q50.82 13.51 50.72 13.34L50.72 13.34L50.72 13.34Q50.85 13.25 50.89 13.10L50.89 13.10L50.89 13.10Q50.93 12.96 50.96 12.81L50.96 12.81L50.96 12.81Q51.00 12.66 51.05 12.52L51.05 12.52L51.05 12.52Q51.11 12.37 51.23 12.28L51.23 12.28L51.23 12.28Q51.20 12.24 51.17 12.21L51.17 12.21L51.17 12.21Q51.15 12.18 51.15 12.11L51.15 12.11L51.15 12.11Q51.35 11.77 51.43 11.53L51.43 11.53L51.43 11.53Q51.52 11.29 51.56 11.07L51.56 11.07L51.56 11.07Q51.61 10.84 51.67 10.58L51.67 10.58L51.67 10.58Q51.72 10.32 51.88 9.93L51.88 9.93L51.88 9.93Q51.87 9.68 51.94 9.49L51.94 9.49L51.94 9.49Q52.01 9.30 52.08 9.11L52.08 9.11L52.08 9.11Q52.16 8.93 52.20 8.72L52.20 8.72L52.20 8.72Q52.24 8.52 52.19 8.24L52.19 8.24L52.19 8.24Q51.95 8.27 51.85 8.41L51.85 8.41L51.85 8.41Q51.75 8.54 51.72 8.78L51.72 8.78L51.72 8.78Q51.60 8.89 51.41 8.88L51.41 8.88L51.41 8.88Q51.21 8.87 51.06 8.93ZM57.08 11.57L57.08 11.57L57.08 11.57Q56.56 11.28 56.13 11.22L56.13 11.22L56.13 11.22Q55.70 11.17 55.31 11.23L55.31 11.23L55.31 11.23Q54.92 11.29 54.56 11.40L54.56 11.40L54.56 11.40Q54.21 11.51 53.85 11.57L53.85 11.57L53.85 11.57Q53.68 12.03 53.48 12.59L53.48 12.59L53.48 12.59Q53.29 13.15 53.12 13.69L53.12 13.69L53.12 13.69Q53.61 13.62 54.02 13.48L54.02 13.48L54.02 13.48Q54.43 13.34 54.81 13.17L54.81 13.17L54.81 13.17Q55.19 13.00 55.56 12.83L55.56 12.83L55.56 12.83Q55.93 12.66 56.33 12.51L56.33 12.51L56.33 12.51Q56.37 12.35 56.51 12.25L56.51 12.25L56.51 12.25Q56.64 12.15 56.78 12.07L56.78 12.07L56.78 12.07Q56.92 11.98 57.01 11.87L57.01 11.87L57.01 11.87Q57.11 11.76 57.08 11.57ZM56.12 7.29L56.12 7.29L56.12 7.29Q55.28 7.26 54.46 7.44L54.46 7.44L54.46 7.44Q53.63 7.62 53.07 7.96L53.07 7.96L53.07 7.96Q53.35 8.19 53.64 8.37L53.64 8.37L53.64 8.37Q53.94 8.54 54.09 8.85L54.09 8.85L54.09 8.85Q54.74 8.59 55.23 8.18L55.23 8.18L55.23 8.18Q55.73 7.78 56.12 7.29ZM66.80 14.33L66.77 14.38L66.77 14.38Q66.69 14.62 66.53 14.85L66.53 14.85L66.53 14.85Q66.38 15.09 66.17 15.28L66.17 15.28L66.17 15.28Q65.95 15.46 65.69 15.59L65.69 15.59L65.69 15.59Q65.43 15.71 65.15 15.72L65.15 15.72L65.15 15.72Q64.97 15.68 64.91 15.63L64.91 15.63L64.91 15.63Q64.85 15.59 64.78 15.54L64.78 15.54L64.78 15.54Q64.74 15.52 64.70 15.50L64.70 15.50L64.70 15.50Q64.67 15.48 64.64 15.46L64.64 15.46L64.48 15.39L64.53 15.22L64.53 15.22Q64.56 15.11 64.52 15.05L64.52 15.05L64.52 15.05Q64.48 14.98 64.35 14.88L64.35 14.88L64.35 14.88Q64.31 14.83 64.27 14.79L64.27 14.79L64.27 14.79Q64.23 14.75 64.20 14.71L64.20 14.71L63.97 14.45L64.34 14.36L64.34 14.36Q64.68 14.26 64.80 14.11L64.80 14.11L64.80 14.11Q64.91 13.96 64.89 13.60L64.89 13.60L64.89 13.60Q64.61 13.55 64.43 13.59L64.43 13.59L64.43 13.59Q64.24 13.63 64.05 13.69L64.05 13.69L64.05 13.69Q63.81 13.75 63.55 13.80L63.55 13.80L63.55 13.80Q63.30 13.85 63 13.85L63 13.85L63 13.85Q62.89 13.85 62.79 13.84L62.79 13.84L62.79 13.84Q62.70 13.84 62.59 13.82L62.59 13.82L62.45 13.79L62.45 13.79Q62.43 13.64 62.40 13.62L62.40 13.62L62.40 13.62Q62.37 13.60 62.34 13.58L62.34 13.58L62.34 13.58Q62.28 13.51 62.20 13.39L62.20 13.39L62.20 13.39Q62.13 13.28 62.17 13.10L62.17 13.10L62.17 13.10Q62.10 12.97 62.08 12.85L62.08 12.85L62.08 12.85Q62.00 13.02 61.96 13.19L61.96 13.19L61.91 13.33L61.77 13.36L61.77 13.36Q61.74 13.37 61.73 13.42L61.73 13.42L61.73 13.42Q61.71 13.47 61.71 13.49L61.71 13.49L61.65 13.73L61.65 13.73Q61.62 13.75 61.59 13.77L61.59 13.77L61.59 13.77Q61.56 13.79 61.54 13.82L61.54 13.82L61.54 13.82Q61.51 13.95 61.47 14.07L61.47 14.07L61.47 14.07Q61.43 14.19 61.39 14.30L61.39 14.30L61.39 14.30Q61.32 14.48 61.27 14.65L61.27 14.65L61.27 14.65Q61.22 14.82 61.24 14.98L61.24 14.98L61.18 15.13L61.18 15.13Q61.11 15.22 61.03 15.26L61.03 15.26L61.03 15.26Q60.95 15.31 60.87 15.35L60.87 15.35L60.87 15.35Q60.84 15.38 60.79 15.40L60.79 15.40L60.79 15.40Q60.74 15.42 60.72 15.44L60.72 15.44L60.68 15.59L60.51 15.61L60.51 15.61Q60.36 15.64 60.30 15.65L60.30 15.65L60.30 15.65Q60.24 15.67 60.16 15.67L60.16 15.67L60.02 15.65L60.02 15.65Q59.87 15.53 59.79 15.46L59.79 15.46L59.79 15.46Q59.71 15.38 59.60 15.31L59.60 15.31L59.60 15.31Q59.47 15.15 59.46 15.07L59.46 15.07L59.46 15.07Q59.45 14.98 59.43 14.92L59.43 14.92L59.43 14.92Q59.40 14.83 59.40 14.78L59.40 14.78L59.40 14.78Q59.39 14.72 59.36 14.70L59.36 14.70L59.19 14.53L59.34 14.41L59.35 14.18L59.35 14.18Q59.62 13.48 59.93 12.84L59.93 12.84L59.93 12.84Q60.24 12.20 60.57 11.53L60.57 11.53L60.57 11.53Q60.68 11.31 60.78 11.09L60.78 11.09L60.78 11.09Q60.88 10.87 60.99 10.65L60.99 10.65L60.99 10.65Q60.98 10.61 60.98 10.55L60.98 10.55L60.98 10.55Q60.98 10.50 61.00 10.43L61.00 10.43L61.00 10.43Q61.15 10.20 61.25 10.01L61.25 10.01L61.25 10.01Q61.35 9.83 61.44 9.64L61.44 9.64L61.44 9.64Q61.55 9.41 61.67 9.19L61.67 9.19L61.67 9.19Q61.78 8.97 61.96 8.74L61.96 8.74L62.18 8.64L62.18 8.64Q62.22 8.63 62.28 8.61L62.28 8.61L62.28 8.61Q62.33 8.59 62.40 8.59L62.40 8.59L62.60 8.61L62.60 8.61Q62.99 8.44 63.27 8.11L63.27 8.11L63.27 8.11Q63.56 7.79 63.86 7.34L63.86 7.34L64.00 7.15L64.18 7.26L64.18 7.26Q64.24 7.30 64.37 7.33L64.37 7.33L64.37 7.33Q64.49 7.37 64.63 7.41L64.63 7.41L64.63 7.41Q64.87 7.46 65.09 7.53L65.09 7.53L65.09 7.53Q65.31 7.60 65.45 7.74L65.45 7.74L65.45 7.74Q65.53 7.96 65.54 8.07L65.54 8.07L65.54 8.07Q65.56 8.18 65.58 8.29L65.58 8.29L65.58 8.29Q65.63 8.52 65.66 8.75L65.66 8.75L65.66 8.75Q65.69 8.98 65.71 9.27L65.71 9.27L65.71 9.27Q65.78 9.50 65.82 9.73L65.82 9.73L65.82 9.73Q65.87 9.95 65.91 10.19L65.91 10.19L65.91 10.19Q65.98 10.51 66.05 10.82L66.05 10.82L66.05 10.82Q66.12 11.13 66.23 11.40L66.23 11.40L66.23 11.40Q66.34 11.40 66.36 11.42L66.36 11.42L66.36 11.42Q66.43 11.39 66.51 11.38L66.51 11.38L66.51 11.38Q66.58 11.36 66.68 11.35L66.68 11.35L66.83 11.33L66.88 11.47L66.88 11.47Q66.90 11.54 67.02 11.61L67.02 11.61L67.02 11.61Q67.20 11.62 67.28 11.68L67.28 11.68L67.28 11.68Q67.36 11.74 67.43 11.81L67.43 11.81L67.43 11.81Q67.48 11.87 67.54 11.89L67.54 11.89L67.74 11.98L67.63 12.18L67.63 12.18Q67.50 12.43 67.25 12.65L67.25 12.65L67.25 12.65Q66.99 12.88 66.68 13.03L66.68 13.03L66.68 13.03Q66.69 13.11 66.70 13.19L66.70 13.19L66.70 13.19Q66.71 13.26 66.73 13.34L66.73 13.34L66.73 13.34Q66.77 13.58 66.80 13.82L66.80 13.82L66.80 13.82Q66.83 14.07 66.80 14.33L66.80 14.33ZM62.82 12.02L62.82 12.02L62.82 12.02Q63.23 11.99 63.57 11.96L63.57 11.96L63.57 11.96Q63.90 11.92 64.31 11.84L64.31 11.84L64.31 11.84Q64.22 11.43 64.11 10.99L64.11 10.99L64.11 10.99Q64.00 10.54 63.88 10.10L63.88 10.10L63.79 10.24L63.79 10.24Q63.52 10.53 63.27 10.88L63.27 10.88L63.27 10.88Q63.01 11.24 62.84 11.55L62.84 11.55L62.84 11.55Q62.75 11.68 62.67 11.80L62.67 11.80L62.67 11.80Q62.59 11.92 62.52 12.04L62.52 12.04L62.52 12.04Q62.60 12.03 62.68 12.03L62.68 12.03L62.68 12.03Q62.75 12.03 62.82 12.02ZM69.88 14.11L69.88 14.11L69.88 14.11Q69.73 14.66 69.61 14.94L69.61 14.94L69.61 14.94Q69.49 15.22 69.26 15.52L69.26 15.52L69.26 15.52Q69.08 15.49 69.02 15.56L69.02 15.56L69.02 15.56Q68.95 15.63 68.87 15.68L68.87 15.68L68.87 15.68Q68.74 15.71 68.69 15.68L68.69 15.68L68.69 15.68Q68.63 15.65 68.59 15.62L68.59 15.62L68.59 15.62Q68.55 15.59 68.49 15.55L68.49 15.55L68.49 15.55Q68.43 15.52 68.30 15.52L68.30 15.52L68.30 15.52Q68.28 15.41 68.24 15.31L68.24 15.31L68.24 15.31Q68.21 15.22 68.06 15.24L68.06 15.24L68.06 15.24Q68.09 15.13 68.07 15.06L68.07 15.06L68.07 15.06Q68.06 14.98 68.04 14.92L68.04 14.92L68.04 14.92Q68.02 14.86 68.00 14.80L68.00 14.80L68.00 14.80Q67.99 14.74 68.02 14.64L68.02 14.64L68.02 14.64Q67.95 14.64 67.91 14.55L67.91 14.55L67.91 14.55Q67.87 14.45 67.81 14.36L67.81 14.36L67.81 14.36Q67.85 14.11 67.89 13.89L67.89 13.89L67.89 13.89Q67.94 13.67 68.00 13.48L68.00 13.48L68.00 13.48Q68.06 13.29 68.10 13.10L68.10 13.10L68.10 13.10Q68.14 12.91 68.06 12.70L68.06 12.70L68.06 12.70Q68.11 12.74 68.14 12.68L68.14 12.68L68.14 12.68Q68.17 12.62 68.18 12.52L68.18 12.52L68.18 12.52Q68.20 12.41 68.20 12.31L68.20 12.31L68.20 12.31Q68.20 12.21 68.18 12.14L68.18 12.14L68.18 12.14Q68.32 11.79 68.41 11.41L68.41 11.41L68.41 11.41Q68.50 11.03 68.57 10.66L68.57 10.66L68.57 10.66Q68.65 10.29 68.73 9.94L68.73 9.94L68.73 9.94Q68.81 9.58 68.95 9.28L68.95 9.28L68.95 9.28Q69.10 9.26 69.28 9.32L69.28 9.32L69.28 9.32Q69.47 9.38 69.51 9.47L69.51 9.47L69.51 9.47Q69.86 9.20 70.14 8.81L70.14 8.81L70.14 8.81Q70.41 8.42 70.70 8.05L70.70 8.05L70.70 8.05Q70.98 7.68 71.33 7.40L71.33 7.40L71.33 7.40Q71.68 7.11 72.21 7.05L72.21 7.05L72.21 7.05Q72.49 7.26 72.82 7.47L72.82 7.47L72.82 7.47Q73.16 7.68 73.38 8.03L73.38 8.03L73.38 8.03Q73.49 8.08 73.56 8.14L73.56 8.14L73.56 8.14Q73.64 8.20 73.75 8.27L73.75 8.27L73.75 8.44L73.75 8.44Q73.91 8.59 74.01 8.78L74.01 8.78L74.01 8.78Q74.12 8.98 74.20 9.21L74.20 9.21L74.20 9.21Q74.28 9.43 74.36 9.66L74.36 9.66L74.36 9.66Q74.44 9.88 74.55 10.09L74.55 10.09L74.55 10.09Q74.53 10.16 74.53 10.21L74.53 10.21L74.53 10.21Q74.53 10.25 74.55 10.31L74.55 10.31L74.55 10.31Q74.57 10.36 74.58 10.42L74.58 10.42L74.58 10.42Q74.59 10.47 74.58 10.57L74.58 10.57L74.58 10.57Q74.54 11.17 74.19 11.54L74.19 11.54L74.19 11.54Q73.84 11.91 73.35 12.15L73.35 12.15L73.35 12.15Q72.86 12.39 72.30 12.55L72.30 12.55L72.30 12.55Q71.74 12.71 71.29 12.91L71.29 12.91L71.29 12.91Q71.29 12.96 71.33 12.96L71.33 12.96L71.33 12.96Q71.38 12.96 71.37 13.03L71.37 13.03L71.37 13.03Q71.70 13.23 71.89 13.36L71.89 13.36L71.89 13.36Q72.08 13.48 72.25 13.56L72.25 13.56L72.25 13.56Q72.42 13.64 72.62 13.71L72.62 13.71L72.62 13.71Q72.82 13.77 73.17 13.85L73.17 13.85L73.17 13.85Q73.53 13.93 73.73 13.98L73.73 13.98L73.73 13.98Q73.92 14.03 74.09 14.06L74.09 14.06L74.09 14.06Q74.25 14.10 74.42 14.12L74.42 14.12L74.42 14.12Q74.59 14.14 74.91 14.16L74.91 14.16L74.91 14.16Q75.03 14.29 75.12 14.46L75.12 14.46L75.12 14.46Q75.21 14.63 75.24 14.80L75.24 14.80L75.24 14.80Q75.26 14.97 75.25 15.13L75.25 15.13L75.25 15.13Q75.24 15.29 75.15 15.38L75.15 15.38L75.15 15.38Q75.17 15.42 75.22 15.42L75.22 15.42L75.22 15.42Q75.26 15.41 75.32 15.42L75.32 15.42L75.32 15.42Q75.24 15.48 75.18 15.56L75.18 15.56L75.18 15.56Q75.13 15.64 75.07 15.72L75.07 15.72L75.07 15.72Q75.02 15.80 74.95 15.87L74.95 15.87L74.95 15.87Q74.88 15.93 74.76 15.94L74.76 15.94L74.76 15.94Q74.33 16.11 73.69 15.96L73.69 15.96L73.69 15.96Q73.05 15.82 72.06 15.44L72.06 15.44L72.06 15.44Q71.57 15.24 71.26 15.10L71.26 15.10L71.26 15.10Q70.96 14.96 70.73 14.81L70.73 14.81L70.73 14.81Q70.51 14.67 70.32 14.51L70.32 14.51L70.32 14.51Q70.14 14.34 69.88 14.11ZM71.83 9.42L71.83 9.42L71.83 9.42Q71.68 9.64 71.50 9.82L71.50 9.82L71.50 9.82Q71.31 9.99 71.14 10.18L71.14 10.18L71.14 10.18Q70.97 10.36 70.83 10.59L70.83 10.59L70.83 10.59Q70.70 10.81 70.64 11.12L70.64 11.12L70.64 11.12Q71.12 11.06 71.64 10.85L71.64 10.85L71.64 10.85Q72.16 10.64 72.63 10.45L72.63 10.45L72.63 10.45Q72.57 10.02 72.33 9.76L72.33 9.76L72.33 9.76Q72.09 9.50 71.83 9.42ZM77.45 14.11L77.45 14.11L77.45 14.11Q77.30 14.66 77.18 14.94L77.18 14.94L77.18 14.94Q77.07 15.22 76.84 15.52L76.84 15.52L76.84 15.52Q76.66 15.49 76.59 15.56L76.59 15.56L76.59 15.56Q76.52 15.63 76.44 15.68L76.44 15.68L76.44 15.68Q76.32 15.71 76.26 15.68L76.26 15.68L76.26 15.68Q76.21 15.65 76.17 15.62L76.17 15.62L76.17 15.62Q76.13 15.59 76.06 15.55L76.06 15.55L76.06 15.55Q76.00 15.52 75.88 15.52L75.88 15.52L75.88 15.52Q75.85 15.41 75.82 15.31L75.82 15.31L75.82 15.31Q75.78 15.22 75.63 15.24L75.63 15.24L75.63 15.24Q75.66 15.13 75.65 15.06L75.65 15.06L75.65 15.06Q75.63 14.98 75.61 14.92L75.61 14.92L75.61 14.92Q75.59 14.86 75.58 14.80L75.58 14.80L75.58 14.80Q75.56 14.74 75.59 14.64L75.59 14.64L75.59 14.64Q75.52 14.64 75.48 14.55L75.48 14.55L75.48 14.55Q75.44 14.45 75.39 14.36L75.39 14.36L75.39 14.36Q75.43 14.11 75.47 13.89L75.47 13.89L75.47 13.89Q75.51 13.67 75.57 13.48L75.57 13.48L75.57 13.48Q75.63 13.29 75.67 13.10L75.67 13.10L75.67 13.10Q75.71 12.91 75.63 12.70L75.63 12.70L75.63 12.70Q75.69 12.74 75.71 12.68L75.71 12.68L75.71 12.68Q75.74 12.62 75.76 12.52L75.76 12.52L75.76 12.52Q75.77 12.41 75.77 12.31L75.77 12.31L75.77 12.31Q75.77 12.21 75.76 12.14L75.76 12.14L75.76 12.14Q75.89 11.79 75.98 11.41L75.98 11.41L75.98 11.41Q76.07 11.03 76.15 10.66L76.15 10.66L76.15 10.66Q76.22 10.29 76.30 9.94L76.30 9.94L76.30 9.94Q76.38 9.58 76.52 9.28L76.52 9.28L76.52 9.28Q76.67 9.26 76.86 9.32L76.86 9.32L76.86 9.32Q77.04 9.38 77.08 9.47L77.08 9.47L77.08 9.47Q77.44 9.20 77.71 8.81L77.71 8.81L77.71 8.81Q77.98 8.42 78.27 8.05L78.27 8.05L78.27 8.05Q78.56 7.68 78.91 7.40L78.91 7.40L78.91 7.40Q79.26 7.11 79.79 7.05L79.79 7.05L79.79 7.05Q80.06 7.26 80.40 7.47L80.40 7.47L80.40 7.47Q80.73 7.68 80.95 8.03L80.95 8.03L80.95 8.03Q81.06 8.08 81.14 8.14L81.14 8.14L81.14 8.14Q81.21 8.20 81.32 8.27L81.32 8.27L81.32 8.44L81.32 8.44Q81.48 8.59 81.59 8.78L81.59 8.78L81.59 8.78Q81.69 8.98 81.77 9.21L81.77 9.21L81.77 9.21Q81.85 9.43 81.94 9.66L81.94 9.66L81.94 9.66Q82.02 9.88 82.13 10.09L82.13 10.09L82.13 10.09Q82.10 10.16 82.10 10.21L82.10 10.21L82.10 10.21Q82.10 10.25 82.12 10.31L82.12 10.31L82.12 10.31Q82.14 10.36 82.15 10.42L82.15 10.42L82.15 10.42Q82.17 10.47 82.15 10.57L82.15 10.57L82.15 10.57Q82.11 11.17 81.76 11.54L81.76 11.54L81.76 11.54Q81.42 11.91 80.92 12.15L80.92 12.15L80.92 12.15Q80.43 12.39 79.87 12.55L79.87 12.55L79.87 12.55Q79.31 12.71 78.86 12.91L78.86 12.91L78.86 12.91Q78.86 12.96 78.91 12.96L78.91 12.96L78.91 12.96Q78.96 12.96 78.94 13.03L78.94 13.03L78.94 13.03Q79.27 13.23 79.46 13.36L79.46 13.36L79.46 13.36Q79.65 13.48 79.82 13.56L79.82 13.56L79.82 13.56Q79.99 13.64 80.19 13.71L80.19 13.71L80.19 13.71Q80.39 13.77 80.75 13.85L80.75 13.85L80.75 13.85Q81.10 13.93 81.30 13.98L81.30 13.98L81.30 13.98Q81.50 14.03 81.66 14.06L81.66 14.06L81.66 14.06Q81.83 14.10 82.00 14.12L82.00 14.12L82.00 14.12Q82.17 14.14 82.48 14.16L82.48 14.16L82.48 14.16Q82.61 14.29 82.69 14.46L82.69 14.46L82.69 14.46Q82.78 14.63 82.81 14.80L82.81 14.80L82.81 14.80Q82.84 14.97 82.82 15.13L82.82 15.13L82.82 15.13Q82.81 15.29 82.73 15.38L82.73 15.38L82.73 15.38Q82.74 15.42 82.79 15.42L82.79 15.42L82.79 15.42Q82.84 15.41 82.89 15.42L82.89 15.42L82.89 15.42Q82.81 15.48 82.76 15.56L82.76 15.56L82.76 15.56Q82.70 15.64 82.65 15.72L82.65 15.72L82.65 15.72Q82.59 15.80 82.52 15.87L82.52 15.87L82.52 15.87Q82.46 15.93 82.33 15.94L82.33 15.94L82.33 15.94Q81.91 16.11 81.27 15.96L81.27 15.96L81.27 15.96Q80.62 15.82 79.64 15.44L79.64 15.44L79.64 15.44Q79.15 15.24 78.84 15.10L78.84 15.10L78.84 15.10Q78.53 14.96 78.31 14.81L78.31 14.81L78.31 14.81Q78.08 14.67 77.90 14.51L77.90 14.51L77.90 14.51Q77.71 14.34 77.45 14.11ZM79.41 9.42L79.41 9.42L79.41 9.42Q79.26 9.64 79.07 9.82L79.07 9.82L79.07 9.82Q78.89 9.99 78.72 10.18L78.72 10.18L78.72 10.18Q78.54 10.36 78.41 10.59L78.41 10.59L78.41 10.59Q78.27 10.81 78.22 11.12L78.22 11.12L78.22 11.12Q78.70 11.06 79.21 10.85L79.21 10.85L79.21 10.85Q79.73 10.64 80.20 10.45L80.20 10.45L80.20 10.45Q80.14 10.02 79.91 9.76L79.91 9.76L79.91 9.76Q79.67 9.50 79.41 9.42ZM86.99 11.74L86.93 11.95L86.93 11.95Q86.83 12.03 86.76 12.15L86.76 12.15L86.76 12.15Q86.69 12.26 86.63 12.39L86.63 12.39L86.63 12.39Q86.56 12.54 86.47 12.67L86.47 12.67L86.47 12.67Q86.39 12.81 86.27 12.92L86.27 12.92L86.27 12.92Q86.20 13.13 86.13 13.24L86.13 13.24L86.13 13.24Q86.06 13.36 85.91 13.51L85.91 13.51L85.91 13.51Q85.78 14.05 85.27 14.70L85.27 14.70L85.27 14.70Q85.26 14.82 85.20 14.94L85.20 14.94L85.20 14.94Q85.13 15.05 85.07 15.16L85.07 15.16L85.07 15.16Q85.04 15.20 85.01 15.25L85.01 15.25L85.01 15.25Q84.98 15.30 84.97 15.33L84.97 15.33L84.94 15.46L84.94 15.46Q84.88 15.57 84.79 15.65L84.79 15.65L84.79 15.65Q84.71 15.74 84.64 15.80L84.64 15.80L84.64 15.80Q84.62 15.85 84.55 15.91L84.55 15.91L84.34 16.00L84.34 16.00Q83.34 15.86 83.13 14.93L83.13 14.93L83.14 14.79L83.14 14.79Q83.17 14.72 83.19 14.65L83.19 14.65L83.19 14.65Q83.21 14.57 83.23 14.49L83.23 14.49L83.23 14.49Q83.29 14.30 83.36 14.11L83.36 14.11L83.36 14.11Q83.44 13.92 83.59 13.77L83.59 13.77L83.59 13.77Q83.62 13.67 83.71 13.46L83.71 13.46L83.71 13.46Q83.81 13.25 84.04 12.82L84.04 12.82L84.04 12.82Q84.23 12.50 84.34 12.30L84.34 12.30L84.34 12.30Q84.45 12.11 84.52 12.00L84.52 12.00L84.52 12.00Q84.38 11.79 84.19 11.61L84.19 11.61L84.19 11.61Q84.01 11.27 83.88 10.95L83.88 10.95L83.88 10.95Q83.75 10.64 83.69 10.39L83.69 10.39L83.69 10.39Q83.67 10.21 83.64 10.09L83.64 10.09L83.64 10.09Q83.62 9.97 83.59 9.83L83.59 9.83L83.59 9.83Q83.55 9.68 83.52 9.53L83.52 9.53L83.52 9.53Q83.49 9.38 83.49 9.21L83.49 9.21L83.49 9.21Q83.43 9.12 83.41 9.02L83.41 9.02L83.44 8.89L83.44 8.89Q83.48 8.79 83.45 8.63L83.45 8.63L83.45 8.63Q83.43 8.48 83.38 8.31L83.38 8.31L83.38 8.31Q83.36 8.18 83.32 8.01L83.32 8.01L83.32 8.01Q83.29 7.85 83.30 7.68L83.30 7.68L83.30 7.68Q83.32 7.52 83.39 7.38L83.39 7.38L83.39 7.38Q83.47 7.23 83.64 7.12L83.64 7.12L83.88 7.11L83.88 7.11Q84 7.18 84.12 7.24L84.12 7.24L84.12 7.24Q84.23 7.30 84.34 7.37L84.34 7.37L84.34 7.37Q84.49 7.44 84.63 7.51L84.63 7.51L84.63 7.51Q84.77 7.57 84.92 7.68L84.92 7.68L85.01 7.88L85.19 8.03L85.19 8.18L85.19 8.18Q85.20 8.23 85.20 8.33L85.20 8.33L85.20 8.33Q85.20 8.50 85.26 8.54L85.26 8.54L85.31 8.71L85.31 8.71Q85.31 8.90 85.35 9.07L85.35 9.07L85.35 9.07Q85.39 9.24 85.44 9.39L85.44 9.39L85.44 9.39Q85.48 9.54 85.52 9.71L85.52 9.71L85.52 9.71Q85.56 9.87 85.53 10.06L85.53 10.06L85.53 10.06Q85.61 10.02 85.67 9.97L85.67 9.97L85.67 9.97Q85.70 9.94 85.72 9.93L85.72 9.93L85.72 9.93Q85.75 9.91 85.78 9.88L85.78 9.88L86.58 8.79L86.56 8.65L86.84 8.38L86.84 8.38Q86.95 8.27 87.06 8.18L87.06 8.18L87.06 8.18Q87.16 8.08 87.23 7.97L87.23 7.97L87.38 7.86L87.38 7.86Q87.81 7.18 88.62 7.01L88.62 7.01L88.81 6.99L88.87 7.16L88.87 7.16Q88.92 7.31 89.09 7.44L89.09 7.44L89.09 7.44Q89.26 7.56 89.46 7.67L89.46 7.67L89.58 7.75L89.58 7.75Q89.65 7.89 89.65 7.96L89.65 7.96L89.65 7.96Q89.65 8.03 89.63 8.08L89.63 8.08L89.69 8.22L89.69 8.22Q89.58 8.54 89.42 8.70L89.42 8.70L89.42 8.70Q89.26 8.85 89.11 8.97L89.11 8.97L89.11 8.97Q88.99 9.08 88.89 9.17L88.89 9.17L88.89 9.17Q88.79 9.26 88.73 9.39L88.73 9.39L88.63 9.50L88.63 9.50Q88.35 9.67 88.27 9.94L88.27 9.94L88.22 10.10L88.06 10.10L88.06 10.10Q88.05 10.10 88.00 10.15L88.00 10.15L88.00 10.15Q87.95 10.20 87.86 10.39L87.86 10.39L87.86 10.39Q87.76 10.53 87.72 10.57L87.72 10.57L87.72 10.57Q87.68 10.61 87.65 10.64L87.65 10.64L87.65 10.64Q87.64 10.69 87.62 10.74L87.62 10.74L87.62 10.74Q87.60 10.79 87.57 10.86L87.57 10.86L87.57 10.86Q87.39 11.03 87.35 11.12L87.35 11.12L87.35 11.12Q87.31 11.21 87.25 11.32L87.25 11.32L87.25 11.32Q87.20 11.43 87.15 11.53L87.15 11.53L87.15 11.53Q87.10 11.63 86.99 11.74L86.99 11.74Z"></path></g><!----><g data-v-423bf9ae="" id="b9ce607f-bf58-4c69-85c7-4a87d09d4a28" transform="matrix(1.499350257151747,0,0,1.499350257151747,174.65764957812473,-1.9872154574365695)" stroke="none" fill="white"><path d="M1 45.001c0 7.345 5.955 13.3 13.301 13.3V31.7C6.955 31.7 1 37.654 1 45.001zM99.5 45.001c0 7.345-5.955 13.3-13.301 13.3V31.7c7.346 0 13.301 5.954 13.301 13.301zM82.31 27.998h-.051C79.075 13.146 65.876 1.977 50.12 1.977c-15.759 0-28.961 11.174-32.14 26.032a3.01 3.01 0 0 0-2.801 3.001v27.981a3.012 3.012 0 0 0 3.011 3.012h1.882a3.012 3.012 0 0 0 3.011-3.012V31.01c0-1.052-.54-1.977-1.357-2.515C24.655 15.486 36.273 5.742 50.12 5.742c13.904 0 25.562 9.827 28.43 22.916a3.005 3.005 0 0 0-1.134 2.352v27.981a3.013 3.013 0 0 0 3.012 3.012h1.882a3.013 3.013 0 0 0 3.012-3.012V31.01a3.013 3.013 0 0 0-3.012-3.012z"></path><path d="M65.476 27.793l8.343 6.21-.3.404-8.343-6.21zM65.328 37.639h8.343v.502h-8.343zM68.173 41.152h5.498v.502h-5.498zM73.628 45.502l.088.494-10.35 1.841-.088-.494zM74.742 50.197l.239.442-8.368 4.535-.24-.441z"></path><g><path d="M36.233 27.796l.3.403-8.34 6.214-.3-.403zM28.042 37.639h8.342v.502h-8.342zM28.042 41.152h5.498v.502h-5.498zM28.086 45.503l10.349 1.84-.088.495-10.35-1.841zM26.97 50.192l8.366 4.543-.24.44-8.364-4.543z"></path></g></g><!----><g data-v-423bf9ae="" id="da7428a0-2d43-4edc-96ce-74a22ab8d4ce" fill="white" transform="matrix(0.9532959322445039,0,0,0.9532959322445039,63.130895821877516,199.16481668228244)"><path d="M0.73 5.77C0.73 9.07 5.71 8.20 5.71 10.65C5.71 11.59 4.87 12.31 3.89 12.31C3.07 12.31 1.47 11.83 1.44 11.47L1.36 10.15C1.34 9.97 1.27 9.91 1.09 9.91L1.02 9.91C0.81 9.91 0.81 10.00 0.81 10.12C0.81 10.32 0.92 11.66 0.95 12.17C0.97 12.38 2.23 12.85 3.77 12.85C5.33 12.85 6.94 11.87 6.94 10.11C6.94 6.79 1.97 7.87 1.97 5.32C1.97 4.31 2.76 3.56 3.79 3.56C4.82 3.56 5.91 4.58 5.91 4.89C5.91 5.01 5.87 5.73 5.87 5.78C5.87 5.92 5.91 5.99 6.17 5.99C6.41 5.99 6.43 5.94 6.43 5.75C6.43 5.04 6.51 3.68 6.51 3.53C6.51 3.30 6.47 3.29 6.20 3.29C5.98 3.29 5.96 3.32 5.95 3.53C5.95 3.61 5.94 3.78 5.89 3.78C5.84 3.78 5.75 3.74 5.68 3.68C4.89 3.14 4.27 3.08 3.77 3.08C2.24 3.08 0.73 4.17 0.73 5.77ZM14.77 10.04C14.77 11.58 15.93 12.85 17.46 12.85C19.22 12.85 20.26 11.58 20.26 9.84C20.26 8.29 19.24 7.01 17.68 7.01C15.93 7.01 14.77 8.37 14.77 10.04ZM15.85 10.23C15.85 8.69 16.24 7.46 17.51 7.46C18.65 7.46 19.17 8.74 19.17 9.74C19.17 10.92 18.93 12.40 17.46 12.40C16.41 12.40 15.85 11.27 15.85 10.23ZM27.92 7.73C27.92 7.77 27.93 7.80 27.99 7.80C28.04 7.80 28.73 7.74 28.77 7.74C28.85 7.74 28.91 7.70 28.92 7.90C28.95 8.33 28.95 8.81 28.95 9.28C28.95 9.73 28.92 12.21 28.84 12.21L28.21 12.21C28.04 12.21 28.03 12.29 28.03 12.43C28.03 12.59 28.03 12.67 28.21 12.67C28.63 12.67 29.13 12.64 29.48 12.64C29.89 12.64 30.39 12.67 30.66 12.67C30.84 12.67 30.84 12.56 30.84 12.43C30.84 12.29 30.84 12.21 30.65 12.21L30.11 12.21C29.99 12.21 29.97 12.21 29.97 11.98C29.97 10.84 29.99 9.67 29.99 8.53C29.99 8.41 30.00 8.36 30.21 8.25C30.49 8.11 30.90 7.85 31.44 7.85C32.49 7.85 32.75 8.62 32.75 9.63C32.75 11.03 32.72 12.21 32.66 12.21L32.06 12.21C31.91 12.21 31.84 12.26 31.84 12.45C31.84 12.61 31.84 12.67 32.05 12.67C32.47 12.67 32.91 12.64 33.26 12.64C33.67 12.64 34.05 12.67 34.31 12.67C34.51 12.67 34.52 12.56 34.52 12.43C34.52 12.25 34.47 12.21 34.29 12.21L33.87 12.21C33.75 12.21 33.75 12.21 33.75 12.08C33.75 11.87 33.82 10.47 33.82 9.70C33.82 8.33 33.57 7.18 31.92 7.18C31.05 7.18 30.53 7.63 30.11 7.90C30.02 7.95 29.96 8.05 29.96 7.90L29.96 7.42C29.96 7.28 29.99 7.21 29.78 7.22C29.37 7.25 28.42 7.31 28.22 7.32C28.03 7.34 28.04 7.35 28 7.46C27.97 7.53 27.92 7.67 27.92 7.73ZM42.11 7.64C42.11 7.70 42.18 7.70 42.24 7.70C42.29 7.70 42.87 7.67 42.91 7.67C43.01 7.67 43.06 7.66 43.08 7.85C43.12 8.88 43.13 9.87 43.13 10.85C43.13 11.14 43.13 12.21 43.09 12.21L42.39 12.21C42.20 12.21 42.18 12.29 42.18 12.43C42.18 12.59 42.18 12.67 42.35 12.67C42.62 12.67 43.29 12.64 43.64 12.64C43.99 12.64 44.58 12.67 44.84 12.67C45.00 12.67 45.01 12.57 45.01 12.43C45.01 12.28 45.01 12.21 44.84 12.21L44.24 12.21C44.17 12.21 44.17 10.04 44.17 9.70L44.17 7.32C44.17 7.24 44.17 7.20 44.03 7.20C43.96 7.20 43.22 7.24 42.45 7.27C42.28 7.27 42.24 7.27 42.18 7.41C42.14 7.52 42.11 7.60 42.11 7.64ZM42.87 4.86C42.87 5.28 43.18 5.47 43.48 5.47C43.89 5.47 44.38 5.15 44.38 4.65C44.38 4.21 44.06 4.05 43.75 4.05C43.40 4.05 42.87 4.33 42.87 4.86ZM52.70 10.07C52.70 12.11 53.94 12.82 55.20 12.82C55.75 12.82 56.42 12.57 56.90 12.28C57.01 12.21 57.05 12.22 57.05 12.29C57.05 12.35 57.04 12.77 57.04 12.80C57.04 12.92 57.05 12.96 57.15 12.96C57.22 12.96 58.87 12.74 58.87 12.74C59.00 12.73 59.00 12.57 59.00 12.38C59.00 12.28 58.94 12.28 58.86 12.29C58.72 12.31 58.39 12.36 58.35 12.36C58.11 12.36 58.06 12.24 58.04 11.63C58.03 11.13 58.02 10.47 58.02 10.02C58.02 5.68 58.10 3.74 58.10 3.26C58.10 3.07 58.09 3.04 58.03 3.04C57.81 3.04 56.97 3.19 56.04 3.29C55.93 3.30 55.94 3.33 55.92 3.51C55.89 3.70 55.90 3.77 55.97 3.77C56.07 3.77 56.83 3.64 56.91 3.64C56.99 3.64 57.06 6.51 57.06 7.41C57.06 7.52 57.05 7.60 57.02 7.60C56.98 7.60 56.38 7.25 55.58 7.25C53.94 7.25 52.70 8.46 52.70 10.07ZM53.80 9.97C53.80 8.74 54.54 7.62 55.75 7.62C56.46 7.62 57.06 8.16 57.06 8.30L57.06 11.80C57.06 12.00 56.27 12.22 55.89 12.22C54.40 12.22 53.80 11.26 53.80 9.97ZM66.68 10.04C66.68 11.58 67.84 12.85 69.37 12.85C71.13 12.85 72.17 11.58 72.17 9.84C72.17 8.29 71.15 7.01 69.59 7.01C67.84 7.01 66.68 8.37 66.68 10.04ZM67.76 10.23C67.76 8.69 68.15 7.46 69.43 7.46C70.56 7.46 71.08 8.74 71.08 9.74C71.08 10.92 70.84 12.40 69.37 12.40C68.32 12.40 67.76 11.27 67.76 10.23ZM89.74 10.01C89.74 11.68 90.71 12.85 92.47 12.85C93.93 12.85 94.92 11.56 94.92 11.48C94.92 11.45 94.68 11.24 94.64 11.24C94.56 11.24 93.97 12.15 92.79 12.15C91.78 12.15 90.79 11.33 90.79 9.88C90.79 9.72 90.80 9.49 90.83 9.42C91.04 9.42 93.80 9.49 93.95 9.49C94.09 9.49 94.75 9.46 94.75 9.28C94.75 8.09 94.04 7.01 92.62 7.01C90.92 7.01 89.74 8.33 89.74 10.01ZM90.86 9.03C90.92 8.34 91.56 7.41 92.46 7.41C92.89 7.41 93.70 7.70 93.70 8.99C93.70 9.04 93.53 9.03 93.18 9.04C92.48 9.07 91.06 9.10 90.99 9.10C90.87 9.10 90.86 9.09 90.86 9.03ZM112.46 12.39C112.46 12.63 112.50 12.68 112.70 12.68C113.02 12.68 113.78 12.64 114.49 12.64C115.15 12.64 115.95 12.68 116.17 12.68C116.34 12.68 116.37 12.61 116.37 12.40C116.37 12.24 116.34 12.18 116.17 12.18L115.21 12.18C115.11 12.18 115.08 9.55 115.08 7.76L115.08 5.87C115.08 5.14 115.11 3.70 115.21 3.70L116.12 3.70C116.34 3.70 116.37 3.68 116.37 3.49C116.37 3.25 116.34 3.19 116.17 3.19C115.85 3.19 115.18 3.23 114.52 3.23C113.71 3.23 112.99 3.19 112.77 3.19C112.59 3.19 112.52 3.21 112.52 3.44C112.52 3.68 112.60 3.70 112.77 3.70L113.69 3.70C113.74 3.70 113.81 4.79 113.81 5.71L113.81 7.08C113.81 8.92 113.79 12.18 113.68 12.18L112.76 12.18C112.53 12.18 112.46 12.19 112.46 12.39ZM123.97 3.58C123.97 3.65 123.98 3.65 124.04 3.65C124.10 3.65 124.68 3.60 124.77 3.60C124.84 3.60 124.89 3.57 124.92 3.82C125.03 5.07 125.08 10.37 125.08 11.06C125.08 11.44 125.08 12.21 125.01 12.21L124.29 12.21C124.14 12.21 124.12 12.29 124.12 12.43C124.12 12.59 124.14 12.67 124.31 12.67C124.73 12.67 125.30 12.64 125.65 12.64C126.06 12.64 126.55 12.67 126.81 12.67C126.98 12.67 126.98 12.60 126.98 12.43C126.98 12.28 126.98 12.21 126.81 12.21L126.21 12.21C126.15 12.21 126.14 12.05 126.14 11.70C126.14 8.89 126.07 7.62 126.06 3.32C126.06 3.16 126.06 3.07 125.92 3.07C125.83 3.07 124.74 3.15 124.18 3.19C124.07 3.21 124.04 3.19 124.01 3.32C123.98 3.42 123.97 3.57 123.97 3.58ZM134.50 7.60C134.50 7.66 134.54 7.67 134.61 7.67C134.67 7.67 135.25 7.66 135.30 7.66C135.39 7.66 135.42 8.05 135.42 8.69L135.42 10.89C135.42 11.83 135.63 12.80 136.99 12.80C138.03 12.80 139.22 12.15 139.24 12.15C139.29 12.15 139.26 12.87 139.34 12.87C139.40 12.87 140.53 12.70 141.01 12.63C141.19 12.60 141.19 12.59 141.19 12.38C141.19 12.29 141.19 12.19 141.11 12.19C141.06 12.19 140.52 12.28 140.49 12.28C140.31 12.28 140.27 12.19 140.27 11.49C140.27 10.63 140.28 7.28 140.28 7.28C140.28 7.20 140.29 7.15 140.14 7.15C140.07 7.15 139.23 7.20 138.52 7.22C138.39 7.22 138.35 7.25 138.33 7.35C138.32 7.39 138.31 7.56 138.31 7.60C138.31 7.64 138.36 7.64 138.42 7.64C138.46 7.64 139.01 7.62 139.12 7.62C139.20 7.62 139.23 9.87 139.23 10.18L139.23 11.83C139.23 11.93 138.47 12.01 138.00 12.01C137.17 12.01 136.49 11.86 136.49 11.12L136.49 7.31C136.49 7.22 136.49 7.18 136.40 7.18C136.33 7.18 135.11 7.22 134.81 7.24C134.64 7.25 134.60 7.24 134.55 7.36C134.53 7.43 134.50 7.55 134.50 7.60ZM148.78 7.70C148.78 7.77 148.81 7.78 148.85 7.78C148.90 7.78 149.41 7.76 149.63 7.74C149.72 7.74 149.70 7.74 149.72 7.84C149.73 8.02 149.74 8.40 149.74 8.79L149.74 10.32C149.74 10.95 149.74 11.52 149.72 11.80C149.69 12.08 149.65 12.21 149.58 12.21L148.99 12.21C148.85 12.21 148.83 12.31 148.83 12.45C148.83 12.63 148.88 12.67 149.00 12.67C149.23 12.67 149.87 12.64 150.22 12.64C150.57 12.64 151.06 12.67 151.33 12.67C151.51 12.67 151.52 12.57 151.52 12.43C151.52 12.29 151.51 12.21 151.33 12.21L150.99 12.21C150.78 12.21 150.77 12.21 150.77 11.80L150.77 8.46C150.77 8.39 150.77 8.34 150.91 8.23C151.12 8.06 151.59 7.83 152.28 7.83C153.20 7.83 153.24 8.61 153.24 9.58C153.24 9.67 153.26 10.28 153.26 10.89C153.26 11.48 153.26 12.21 153.16 12.21L152.63 12.21C152.46 12.21 152.45 12.29 152.45 12.43C152.45 12.60 152.47 12.67 152.67 12.67C153.09 12.67 153.37 12.64 153.72 12.64C154.13 12.64 154.53 12.67 154.80 12.67C154.94 12.67 154.98 12.57 154.98 12.43C154.98 12.29 154.98 12.21 154.80 12.21L154.29 12.21C154.27 12.21 154.27 11.55 154.27 10.86L154.27 9.30C154.27 8.46 154.18 8.32 154.18 8.22C154.18 8.19 154.84 7.83 155.50 7.83C156.48 7.83 156.70 8.64 156.70 9.58C156.70 10.08 156.70 12.21 156.59 12.21L156.02 12.21C155.86 12.21 155.81 12.28 155.81 12.43C155.81 12.59 155.82 12.67 155.99 12.67C156.41 12.67 156.87 12.64 157.22 12.64C157.63 12.64 158.06 12.67 158.33 12.67C158.51 12.67 158.52 12.57 158.52 12.43C158.52 12.29 158.51 12.21 158.33 12.21L157.77 12.21C157.75 12.21 157.74 11.97 157.74 11.62C157.74 11.48 157.77 9.77 157.77 9.24C157.77 8.02 157.37 7.15 155.99 7.15C155.06 7.15 154.11 7.84 154.07 7.84C154.03 7.84 153.89 7.13 152.82 7.13C152.01 7.13 151.24 7.62 150.82 7.91C150.75 7.97 150.75 7.97 150.75 7.84L150.75 7.42C150.75 7.27 150.75 7.22 150.58 7.22C150.51 7.22 149.66 7.27 149.09 7.29C148.89 7.31 148.89 7.29 148.85 7.43C148.82 7.53 148.78 7.66 148.78 7.70ZM166.11 7.64C166.11 7.70 166.18 7.70 166.24 7.70C166.29 7.70 166.87 7.67 166.91 7.67C167.01 7.67 167.06 7.66 167.08 7.85C167.12 8.88 167.13 9.87 167.13 10.85C167.13 11.14 167.13 12.21 167.09 12.21L166.39 12.21C166.19 12.21 166.18 12.29 166.18 12.43C166.18 12.59 166.18 12.67 166.35 12.67C166.61 12.67 167.29 12.64 167.64 12.64C167.99 12.64 168.57 12.67 168.84 12.67C168.99 12.67 169.01 12.57 169.01 12.43C169.01 12.28 169.01 12.21 168.84 12.21L168.24 12.21C168.17 12.21 168.17 10.04 168.17 9.70L168.17 7.32C168.17 7.24 168.17 7.20 168.03 7.20C167.96 7.20 167.22 7.24 166.45 7.27C166.28 7.27 166.24 7.27 166.18 7.41C166.14 7.52 166.11 7.60 166.11 7.64ZM166.87 4.86C166.87 5.28 167.17 5.47 167.48 5.47C167.89 5.47 168.38 5.15 168.38 4.65C168.38 4.21 168.06 4.05 167.75 4.05C167.40 4.05 166.87 4.33 166.87 4.86ZM176.60 7.73C176.60 7.77 176.61 7.80 176.67 7.80C176.72 7.80 177.41 7.74 177.45 7.74C177.53 7.74 177.59 7.70 177.60 7.90C177.63 8.33 177.63 8.81 177.63 9.28C177.63 9.73 177.60 12.21 177.52 12.21L176.89 12.21C176.72 12.21 176.71 12.29 176.71 12.43C176.71 12.59 176.71 12.67 176.89 12.67C177.31 12.67 177.81 12.64 178.16 12.64C178.57 12.64 179.07 12.67 179.34 12.67C179.52 12.67 179.52 12.56 179.52 12.43C179.52 12.29 179.52 12.21 179.33 12.21L178.79 12.21C178.67 12.21 178.65 12.21 178.65 11.98C178.65 10.84 178.67 9.67 178.67 8.53C178.67 8.41 178.68 8.36 178.89 8.25C179.17 8.11 179.58 7.85 180.12 7.85C181.17 7.85 181.43 8.62 181.43 9.63C181.43 11.03 181.40 12.21 181.34 12.21L180.74 12.21C180.59 12.21 180.52 12.26 180.52 12.45C180.52 12.61 180.52 12.67 180.73 12.67C181.15 12.67 181.59 12.64 181.94 12.64C182.35 12.64 182.73 12.67 182.99 12.67C183.19 12.67 183.20 12.56 183.20 12.43C183.20 12.25 183.15 12.21 182.97 12.21L182.55 12.21C182.43 12.21 182.43 12.21 182.43 12.08C182.43 11.87 182.50 10.47 182.50 9.70C182.50 8.33 182.25 7.18 180.60 7.18C179.73 7.18 179.21 7.63 178.79 7.90C178.70 7.95 178.64 8.05 178.64 7.90L178.64 7.42C178.64 7.28 178.67 7.21 178.46 7.22C178.05 7.25 177.10 7.31 176.90 7.32C176.71 7.34 176.72 7.35 176.68 7.46C176.65 7.53 176.60 7.67 176.60 7.73ZM190.96 11.61C190.96 12.35 191.49 12.84 192.37 12.84C192.99 12.84 193.70 12.45 194.11 12.19C194.21 12.14 194.22 12.11 194.26 12.24C194.35 12.46 194.40 12.88 194.85 12.88C194.95 12.88 195.19 12.74 195.44 12.56C195.78 12.31 196.15 12.04 196.15 12.01C196.15 11.93 196.00 11.73 195.93 11.73C195.90 11.73 195.48 12.08 195.37 12.08C195.33 12.08 195.12 12.01 195.12 11.70C195.12 11.40 195.20 9.56 195.20 8.85C195.20 7.73 194.77 6.97 193.33 6.97C192.40 6.97 191.16 7.67 191.16 8.85C191.16 9.00 191.21 9.11 191.28 9.11C191.35 9.11 191.86 8.86 192.09 8.69C192.18 8.64 192.19 8.50 192.19 8.41C192.19 7.84 192.22 7.63 192.60 7.48C192.72 7.42 192.89 7.39 193.03 7.39C194.19 7.39 194.21 8.32 194.21 9.31C194.21 9.44 194.21 9.48 194.14 9.49C192.75 9.73 190.96 10.32 190.96 11.61ZM192.02 11.21C192.02 10.58 192.65 10.22 193.31 10.01C193.70 9.88 194.12 9.80 194.17 9.80C194.19 9.80 194.21 9.81 194.21 9.91L194.21 11.75C194.21 11.84 193.42 12.14 192.89 12.14C192.33 12.14 192.02 11.65 192.02 11.21ZM203.83 10.12C203.83 11.73 204.85 12.78 206.51 12.78C207.90 12.78 208.77 11.90 208.77 11.82C208.77 11.68 208.73 11.66 208.63 11.66C208.56 11.66 207.90 12.08 206.93 12.08C205.52 12.08 204.82 10.93 204.82 9.77C204.82 8.68 205.51 7.43 206.67 7.43C207.52 7.43 207.55 8.04 207.77 8.68C207.82 8.82 207.93 8.86 208.05 8.86C208.19 8.86 208.38 8.76 208.50 8.67C208.63 8.57 208.66 8.48 208.66 8.36C208.66 7.60 207.68 6.97 206.75 6.97C205.38 6.97 203.83 8.02 203.83 10.12ZM216.43 7.64C216.43 7.70 216.50 7.70 216.55 7.70C216.61 7.70 217.18 7.67 217.22 7.67C217.32 7.67 217.38 7.66 217.39 7.85C217.43 8.88 217.45 9.87 217.45 10.85C217.45 11.14 217.45 12.21 217.41 12.21L216.71 12.21C216.51 12.21 216.50 12.29 216.50 12.43C216.50 12.59 216.50 12.67 216.66 12.67C216.93 12.67 217.60 12.64 217.95 12.64C218.30 12.64 218.89 12.67 219.16 12.67C219.31 12.67 219.32 12.57 219.32 12.43C219.32 12.28 219.32 12.21 219.16 12.21L218.55 12.21C218.48 12.21 218.48 10.04 218.48 9.70L218.48 7.32C218.48 7.24 218.48 7.20 218.34 7.20C218.27 7.20 217.53 7.24 216.76 7.27C216.59 7.27 216.55 7.27 216.50 7.41C216.45 7.52 216.43 7.60 216.43 7.64ZM217.18 4.86C217.18 5.28 217.49 5.47 217.80 5.47C218.20 5.47 218.69 5.15 218.69 4.65C218.69 4.21 218.37 4.05 218.06 4.05C217.71 4.05 217.18 4.33 217.18 4.86ZM229.60 6.29C229.60 6.34 229.66 6.36 229.70 6.36L229.92 6.36C229.99 6.36 230.02 6.31 230.06 6.26L231.21 4.76C231.28 4.66 231.32 4.56 231.32 4.45C231.32 4.20 231.11 3.99 230.78 3.99C230.55 3.99 230.40 4.13 230.31 4.37L229.63 6.19C229.61 6.22 229.60 6.26 229.60 6.29ZM227.01 10.04C227.01 11.58 228.17 12.85 229.70 12.85C231.46 12.85 232.50 11.58 232.50 9.84C232.50 8.29 231.48 7.01 229.92 7.01C228.17 7.01 227.01 8.37 227.01 10.04ZM228.09 10.23C228.09 8.69 228.48 7.46 229.75 7.46C230.89 7.46 231.41 8.74 231.41 9.74C231.41 10.92 231.17 12.40 229.70 12.40C228.65 12.40 228.09 11.27 228.09 10.23ZM240.16 7.73C240.16 7.77 240.17 7.80 240.23 7.80C240.28 7.80 240.97 7.74 241.01 7.74C241.09 7.74 241.15 7.70 241.16 7.90C241.19 8.33 241.19 8.81 241.19 9.28C241.19 9.73 241.16 12.21 241.08 12.21L240.45 12.21C240.28 12.21 240.27 12.29 240.27 12.43C240.27 12.59 240.27 12.67 240.45 12.67C240.87 12.67 241.37 12.64 241.72 12.64C242.13 12.64 242.63 12.67 242.90 12.67C243.08 12.67 243.08 12.56 243.08 12.43C243.08 12.29 243.08 12.21 242.89 12.21L242.35 12.21C242.23 12.21 242.21 12.21 242.21 11.98C242.21 10.84 242.23 9.67 242.23 8.53C242.23 8.41 242.24 8.36 242.45 8.25C242.73 8.11 243.14 7.85 243.68 7.85C244.73 7.85 244.99 8.62 244.99 9.63C244.99 11.03 244.96 12.21 244.90 12.21L244.30 12.21C244.15 12.21 244.08 12.26 244.08 12.45C244.08 12.61 244.08 12.67 244.29 12.67C244.71 12.67 245.15 12.64 245.50 12.64C245.91 12.64 246.29 12.67 246.55 12.67C246.75 12.67 246.76 12.56 246.76 12.43C246.76 12.25 246.71 12.21 246.53 12.21L246.11 12.21C245.99 12.21 245.99 12.21 245.99 12.08C245.99 11.87 246.06 10.47 246.06 9.70C246.06 8.33 245.81 7.18 244.16 7.18C243.29 7.18 242.77 7.63 242.35 7.90C242.26 7.95 242.20 8.05 242.20 7.90L242.20 7.42C242.20 7.28 242.23 7.21 242.02 7.22C241.61 7.25 240.66 7.31 240.46 7.32C240.27 7.34 240.28 7.35 240.24 7.46C240.21 7.53 240.16 7.67 240.16 7.73ZM264.17 7.73C264.17 7.78 264.19 7.78 264.29 7.78C264.35 7.78 264.95 7.76 265.10 7.76C265.24 7.76 265.27 7.73 265.29 7.91C265.33 8.48 265.38 8.92 265.38 11.93L265.38 13.92C265.38 14.83 265.38 16.11 265.34 16.11L264.59 16.11C264.42 16.11 264.40 16.20 264.40 16.34C264.40 16.49 264.42 16.58 264.59 16.58C265.01 16.58 265.64 16.55 265.99 16.55C266.39 16.55 267.23 16.58 267.50 16.58C267.68 16.58 267.69 16.46 267.69 16.34C267.69 16.20 267.69 16.11 267.50 16.11L266.52 16.11C266.48 16.11 266.46 15.68 266.45 15.22L266.41 12.71C266.41 12.57 266.41 12.53 266.43 12.53C266.48 12.53 267.02 12.77 267.62 12.77C269.49 12.77 270.59 11.31 270.59 9.88C270.59 8.39 269.79 7.20 268.16 7.20C267.55 7.20 266.95 7.49 266.62 7.73C266.52 7.80 266.39 7.92 266.39 7.76L266.39 7.48C266.39 7.27 266.32 7.24 266.20 7.24C266.14 7.24 265.23 7.29 264.29 7.32C264.24 7.32 264.17 7.71 264.17 7.73ZM266.41 11.91L266.41 8.32C266.41 8.30 266.42 8.16 266.84 7.95C267.05 7.85 267.33 7.77 267.72 7.77C268.73 7.77 269.50 8.62 269.50 9.98C269.50 11.09 268.86 12.42 267.58 12.42C267.15 12.42 266.41 12.15 266.41 11.91ZM278.33 7.71C278.33 7.76 278.36 7.76 278.43 7.76C278.47 7.76 279.19 7.73 279.27 7.73C279.36 7.73 279.38 9.20 279.38 10.33C279.38 11.24 279.37 12.21 279.27 12.21L278.66 12.21C278.49 12.21 278.49 12.29 278.49 12.43C278.49 12.59 278.50 12.67 278.67 12.67C279.09 12.67 279.57 12.64 279.92 12.64C280.32 12.64 281.18 12.67 281.44 12.67C281.62 12.67 281.62 12.56 281.62 12.43C281.62 12.29 281.61 12.21 281.44 12.21L280.52 12.21C280.42 12.21 280.39 11.47 280.39 10.68C280.39 9.46 280.50 7.87 281.15 7.87C281.39 7.87 281.67 8.32 281.97 8.32C282.24 8.32 282.55 7.85 282.55 7.69C282.55 7.49 282.16 7.04 281.71 7.04C281.26 7.04 280.69 7.49 280.36 8.26C280.29 8.40 280.31 8.46 280.31 8.23C280.31 7.98 280.32 7.64 280.32 7.42C280.32 7.29 280.32 7.29 280.15 7.29C280.06 7.29 279.16 7.32 278.64 7.34C278.45 7.34 278.42 7.34 278.39 7.45C278.38 7.52 278.33 7.66 278.33 7.71ZM290.02 10.04C290.02 11.58 291.19 12.85 292.71 12.85C294.48 12.85 295.51 11.58 295.51 9.84C295.51 8.29 294.49 7.01 292.94 7.01C291.19 7.01 290.02 8.37 290.02 10.04ZM291.10 10.23C291.10 8.69 291.49 7.46 292.77 7.46C293.90 7.46 294.42 8.74 294.42 9.74C294.42 10.92 294.18 12.40 292.71 12.40C291.66 12.40 291.10 11.27 291.10 10.23ZM303.34 12.43C303.34 12.59 303.37 12.67 303.56 12.67C303.98 12.67 304.37 12.64 304.72 12.64C305.13 12.64 305.97 12.67 306.24 12.67C306.43 12.67 306.43 12.60 306.43 12.43C306.43 12.26 306.43 12.21 306.26 12.21L305.31 12.21C305.23 12.21 305.19 11.17 305.19 10.23L305.19 7.91C305.19 7.80 305.24 7.78 305.45 7.78L307.02 7.78C307.10 7.78 307.15 7.48 307.15 7.45C307.15 7.35 307.08 7.35 307.01 7.35L305.45 7.35C305.19 7.35 305.13 7.35 305.13 7.15C305.14 6.55 305.16 6.31 305.16 5.71C305.16 4.83 305.20 3.46 305.94 3.46C306.42 3.46 306.47 3.93 306.56 4.58C306.57 4.72 306.66 4.75 306.78 4.75C306.99 4.75 307.50 4.40 307.50 4.05C307.50 3.44 306.85 3.07 306.29 3.07C304.63 3.07 304.07 4.40 304.07 5.87C304.07 6.61 304.09 6.54 304.09 7.22C304.09 7.35 304.08 7.35 304.00 7.35L303.58 7.35C303.45 7.35 303.42 7.39 303.42 7.57C303.42 7.76 303.45 7.80 303.62 7.80L304.08 7.80C304.11 7.80 304.11 9.02 304.11 9.35L304.11 10.19C304.11 10.35 304.12 10.88 304.12 11.37C304.12 11.70 304.12 12.21 304.07 12.21L303.55 12.21C303.38 12.21 303.34 12.29 303.34 12.43ZM314.57 10.01C314.57 11.68 315.53 12.85 317.30 12.85C318.75 12.85 319.75 11.56 319.75 11.48C319.75 11.45 319.51 11.24 319.47 11.24C319.38 11.24 318.79 12.15 317.62 12.15C316.61 12.15 315.62 11.33 315.62 9.88C315.62 9.72 315.63 9.49 315.66 9.42C315.87 9.42 318.63 9.49 318.78 9.49C318.92 9.49 319.58 9.46 319.58 9.28C319.58 8.09 318.86 7.01 317.45 7.01C315.74 7.01 314.57 8.33 314.57 10.01ZM315.69 9.03C315.74 8.34 316.39 7.41 317.28 7.41C317.72 7.41 318.53 7.70 318.53 8.99C318.53 9.04 318.36 9.03 318.01 9.04C317.31 9.07 315.88 9.10 315.81 9.10C315.70 9.10 315.69 9.09 315.69 9.03ZM327.56 11.90C327.56 12.39 328.51 12.81 329.36 12.81C330.41 12.81 331.38 12.17 331.38 11.12C331.38 10.25 330.41 9.83 329.62 9.45C329.01 9.16 328.50 8.95 328.50 8.37C328.50 7.67 329.03 7.43 329.48 7.43C330.36 7.43 330.18 8.34 330.53 8.34C330.71 8.34 331.16 8.23 331.16 8.06C331.16 7.67 330.74 7.06 329.66 7.06C328.65 7.06 327.60 7.71 327.60 8.68C327.60 9.62 328.50 10.00 329.25 10.33C329.91 10.61 330.47 10.91 330.47 11.54C330.47 12.14 330.05 12.40 329.59 12.40C328.97 12.40 328.61 12.08 328.31 11.72C328.17 11.54 328.12 11.31 328.02 11.31C327.92 11.31 327.56 11.62 327.56 11.90ZM339.11 7.64C339.11 7.70 339.18 7.70 339.23 7.70C339.29 7.70 339.86 7.67 339.91 7.67C340.00 7.67 340.06 7.66 340.07 7.85C340.12 8.88 340.13 9.87 340.13 10.85C340.13 11.14 340.13 12.21 340.09 12.21L339.39 12.21C339.19 12.21 339.18 12.29 339.18 12.43C339.18 12.59 339.18 12.67 339.35 12.67C339.61 12.67 340.28 12.64 340.63 12.64C340.98 12.64 341.57 12.67 341.84 12.67C341.99 12.67 342.01 12.57 342.01 12.43C342.01 12.28 342.01 12.21 341.84 12.21L341.24 12.21C341.17 12.21 341.17 10.04 341.17 9.70L341.17 7.32C341.17 7.24 341.17 7.20 341.03 7.20C340.96 7.20 340.21 7.24 339.44 7.27C339.28 7.27 339.23 7.27 339.18 7.41C339.14 7.52 339.11 7.60 339.11 7.64ZM339.86 4.86C339.86 5.28 340.17 5.47 340.48 5.47C340.89 5.47 341.38 5.15 341.38 4.65C341.38 4.21 341.05 4.05 340.75 4.05C340.40 4.05 339.86 4.33 339.86 4.86ZM349.69 10.04C349.69 11.58 350.85 12.85 352.38 12.85C354.14 12.85 355.18 11.58 355.18 9.84C355.18 8.29 354.16 7.01 352.60 7.01C350.85 7.01 349.69 8.37 349.69 10.04ZM350.77 10.23C350.77 8.69 351.16 7.46 352.44 7.46C353.57 7.46 354.09 8.74 354.09 9.74C354.09 10.92 353.85 12.40 352.38 12.40C351.33 12.40 350.77 11.27 350.77 10.23ZM362.84 7.73C362.84 7.77 362.85 7.80 362.91 7.80C362.96 7.80 363.65 7.74 363.69 7.74C363.78 7.74 363.83 7.70 363.85 7.90C363.87 8.33 363.87 8.81 363.87 9.28C363.87 9.73 363.85 12.21 363.76 12.21L363.13 12.21C362.96 12.21 362.95 12.29 362.95 12.43C362.95 12.59 362.95 12.67 363.13 12.67C363.55 12.67 364.06 12.64 364.41 12.64C364.81 12.64 365.32 12.67 365.58 12.67C365.76 12.67 365.76 12.56 365.76 12.43C365.76 12.29 365.76 12.21 365.57 12.21L365.04 12.21C364.91 12.21 364.90 12.21 364.90 11.98C364.90 10.84 364.91 9.67 364.91 8.53C364.91 8.41 364.92 8.36 365.13 8.25C365.41 8.11 365.82 7.85 366.37 7.85C367.42 7.85 367.67 8.62 367.67 9.63C367.67 11.03 367.64 12.21 367.58 12.21L366.98 12.21C366.83 12.21 366.76 12.26 366.76 12.45C366.76 12.61 366.76 12.67 366.97 12.67C367.39 12.67 367.84 12.64 368.19 12.64C368.59 12.64 368.97 12.67 369.24 12.67C369.43 12.67 369.45 12.56 369.45 12.43C369.45 12.25 369.39 12.21 369.21 12.21L368.79 12.21C368.68 12.21 368.68 12.21 368.68 12.08C368.68 11.87 368.75 10.47 368.75 9.70C368.75 8.33 368.49 7.18 366.84 7.18C365.97 7.18 365.46 7.63 365.04 7.90C364.94 7.95 364.88 8.05 364.88 7.90L364.88 7.42C364.88 7.28 364.91 7.21 364.70 7.22C364.29 7.25 363.34 7.31 363.15 7.32C362.95 7.34 362.96 7.35 362.92 7.46C362.89 7.53 362.84 7.67 362.84 7.73ZM377.20 11.61C377.20 12.35 377.73 12.84 378.62 12.84C379.23 12.84 379.95 12.45 380.35 12.19C380.45 12.14 380.46 12.11 380.51 12.24C380.59 12.46 380.65 12.88 381.09 12.88C381.19 12.88 381.43 12.74 381.68 12.56C382.02 12.31 382.40 12.04 382.40 12.01C382.40 11.93 382.24 11.73 382.17 11.73C382.14 11.73 381.72 12.08 381.61 12.08C381.57 12.08 381.36 12.01 381.36 11.70C381.36 11.40 381.44 9.56 381.44 8.85C381.44 7.73 381.01 6.97 379.57 6.97C378.64 6.97 377.40 7.67 377.40 8.85C377.40 9.00 377.45 9.11 377.52 9.11C377.59 9.11 378.10 8.86 378.34 8.69C378.42 8.64 378.43 8.50 378.43 8.41C378.43 7.84 378.46 7.63 378.84 7.48C378.97 7.42 379.13 7.39 379.27 7.39C380.44 7.39 380.45 8.32 380.45 9.31C380.45 9.44 380.45 9.48 380.38 9.49C378.99 9.73 377.20 10.32 377.20 11.61ZM378.27 11.21C378.27 10.58 378.90 10.22 379.55 10.01C379.95 9.88 380.37 9.80 380.41 9.80C380.44 9.80 380.45 9.81 380.45 9.91L380.45 11.75C380.45 11.84 379.67 12.14 379.13 12.14C378.57 12.14 378.27 11.65 378.27 11.21ZM389.84 3.58C389.84 3.65 389.86 3.65 389.91 3.65C389.97 3.65 390.56 3.60 390.64 3.60C390.71 3.60 390.77 3.57 390.80 3.82C390.91 5.07 390.95 10.37 390.95 11.06C390.95 11.44 390.95 12.21 390.88 12.21L390.17 12.21C390.01 12.21 390.00 12.29 390.00 12.43C390.00 12.59 390.01 12.67 390.18 12.67C390.60 12.67 391.17 12.64 391.52 12.64C391.93 12.64 392.42 12.67 392.69 12.67C392.85 12.67 392.85 12.60 392.85 12.43C392.85 12.28 392.85 12.21 392.69 12.21L392.08 12.21C392.03 12.21 392.01 12.05 392.01 11.70C392.01 8.89 391.94 7.62 391.93 3.32C391.93 3.16 391.93 3.07 391.79 3.07C391.71 3.07 390.61 3.15 390.05 3.19C389.94 3.21 389.91 3.19 389.89 3.32C389.86 3.42 389.84 3.57 389.84 3.58Z"></path></g></svg>